<?xml version="1.0" encoding="utf-8" ?>
<svg baseProfile="full" height="1946" version="1.1" width="2000" xmlns="http://www.w3.org/2000/svg" xmlns:ev="http://www.w3.org/2001/xml-events" xmlns:xlink="http://www.w3.org/1999/xlink"><defs /><path d="M 0,991 L 0,1945 L 747,1945 L 741,1945 L 740,1944 L 731,1944 L 730,1943 L 725,1943 L 724,1942 L 719,1942 L 718,1941 L 712,1941 L 711,1940 L 706,1940 L 705,1939 L 701,1939 L 700,1938 L 696,1938 L 695,1937 L 689,1937 L 688,1936 L 684,1936 L 683,1935 L 680,1935 L 679,1934 L 674,1934 L 673,1933 L 669,1933 L 668,1932 L 666,1932 L 665,1931 L 662,1931 L 661,1930 L 656,1930 L 655,1929 L 652,1929 L 651,1928 L 649,1928 L 648,1927 L 644,1927 L 643,1926 L 640,1926 L 639,1925 L 637,1925 L 636,1924 L 634,1924 L 633,1923 L 629,1923 L 628,1922 L 626,1922 L 625,1921 L 623,1921 L 622,1920 L 619,1920 L 618,1919 L 615,1919 L 614,1918 L 613,1918 L 612,1917 L 609,1917 L 608,1916 L 605,1916 L 604,1915 L 603,1915 L 602,1914 L 600,1914 L 599,1913 L 596,1913 L 595,1912 L 594,1912 L 593,1911 L 591,1911 L 590,1910 L 588,1910 L 587,1909 L 585,1909 L 584,1908 L 582,1908 L 581,1907 L 580,1907 L 579,1906 L 576,1906 L 575,1905 L 574,1905 L 573,1904 L 571,1904 L 570,1903 L 568,1903 L 567,1902 L 566,1902 L 565,1901 L 564,1901 L 563,1900 L 561,1900 L 560,1899 L 558,1899 L 557,1898 L 556,1898 L 555,1897 L 554,1897 L 553,1896 L 551,1896 L 550,1895 L 549,1895 L 548,1894 L 547,1894 L 546,1893 L 545,1893 L 544,1892 L 542,1892 L 541,1891 L 540,1891 L 539,1890 L 537,1890 L 536,1889 L 535,1889 L 534,1888 L 533,1888 L 532,1887 L 531,1887 L 530,1886 L 528,1886 L 527,1885 L 526,1885 L 525,1884 L 524,1884 L 522,1882 L 520,1882 L 519,1881 L 518,1881 L 517,1880 L 516,1880 L 515,1879 L 514,1879 L 513,1878 L 512,1878 L 511,1877 L 510,1877 L 509,1876 L 508,1876 L 507,1875 L 506,1875 L 505,1874 L 504,1874 L 502,1872 L 500,1872 L 498,1870 L 497,1870 L 496,1869 L 495,1869 L 494,1868 L 493,1868 L 492,1867 L 491,1867 L 489,1865 L 488,1865 L 487,1864 L 486,1864 L 485,1863 L 484,1863 L 482,1861 L 481,1861 L 480,1860 L 479,1860 L 477,1858 L 476,1858 L 475,1857 L 474,1857 L 472,1855 L 471,1855 L 470,1854 L 469,1854 L 467,1852 L 466,1852 L 465,1851 L 464,1851 L 462,1849 L 461,1849 L 460,1848 L 459,1848 L 456,1845 L 455,1845 L 453,1843 L 452,1843 L 450,1841 L 449,1841 L 447,1839 L 446,1839 L 444,1837 L 443,1837 L 441,1835 L 440,1835 L 438,1833 L 437,1833 L 434,1830 L 433,1830 L 430,1827 L 429,1827 L 426,1824 L 425,1824 L 421,1820 L 420,1820 L 417,1817 L 416,1817 L 413,1814 L 412,1814 L 408,1810 L 407,1810 L 400,1803 L 399,1803 L 395,1799 L 394,1799 L 393,1798 L 393,1797 L 392,1797 L 383,1788 L 382,1788 L 355,1761 L 355,1760 L 345,1750 L 345,1749 L 344,1748 L 343,1748 L 342,1747 L 342,1746 L 340,1744 L 340,1743 L 335,1738 L 335,1737 L 330,1732 L 330,1731 L 326,1727 L 326,1726 L 323,1723 L 323,1722 L 319,1718 L 319,1717 L 316,1714 L 316,1713 L 313,1710 L 313,1709 L 311,1707 L 311,1706 L 308,1703 L 308,1702 L 305,1699 L 305,1698 L 303,1696 L 303,1695 L 301,1693 L 301,1692 L 299,1690 L 299,1689 L 297,1687 L 297,1686 L 295,1684 L 295,1683 L 293,1681 L 293,1680 L 291,1678 L 291,1677 L 289,1675 L 289,1674 L 287,1672 L 287,1671 L 285,1669 L 285,1668 L 284,1667 L 284,1666 L 282,1664 L 282,1663 L 281,1662 L 281,1661 L 279,1659 L 279,1658 L 278,1657 L 278,1656 L 276,1654 L 276,1653 L 275,1653 L 274,1654 L 271,1654 L 270,1655 L 264,1655 L 263,1656 L 255,1656 L 254,1655 L 247,1655 L 246,1654 L 243,1654 L 242,1653 L 238,1653 L 237,1652 L 235,1652 L 234,1651 L 233,1651 L 232,1650 L 230,1650 L 229,1649 L 228,1649 L 227,1648 L 226,1648 L 225,1647 L 224,1647 L 223,1646 L 222,1646 L 219,1643 L 218,1643 L 215,1640 L 214,1640 L 195,1621 L 194,1621 L 193,1620 L 193,1619 L 179,1605 L 179,1604 L 173,1598 L 173,1597 L 167,1591 L 167,1590 L 163,1586 L 163,1585 L 159,1581 L 159,1580 L 156,1577 L 156,1576 L 153,1573 L 153,1572 L 150,1569 L 150,1568 L 148,1566 L 148,1565 L 144,1561 L 144,1560 L 143,1559 L 143,1558 L 141,1556 L 141,1555 L 138,1552 L 138,1551 L 137,1550 L 137,1549 L 135,1547 L 135,1546 L 133,1544 L 133,1543 L 132,1542 L 131,1542 L 130,1541 L 131,1540 L 129,1538 L 129,1537 L 128,1536 L 128,1535 L 126,1533 L 126,1532 L 124,1530 L 124,1529 L 123,1528 L 123,1527 L 121,1525 L 121,1524 L 120,1523 L 120,1522 L 119,1521 L 119,1520 L 117,1518 L 117,1517 L 116,1516 L 116,1515 L 115,1514 L 115,1513 L 114,1512 L 114,1511 L 113,1510 L 113,1509 L 111,1507 L 111,1506 L 110,1505 L 110,1504 L 109,1503 L 109,1502 L 108,1501 L 108,1500 L 107,1499 L 107,1498 L 106,1497 L 106,1496 L 105,1495 L 105,1494 L 104,1493 L 104,1492 L 103,1491 L 103,1490 L 102,1489 L 102,1488 L 101,1487 L 101,1486 L 100,1485 L 100,1484 L 99,1483 L 99,1482 L 98,1481 L 98,1480 L 97,1479 L 97,1478 L 96,1477 L 96,1476 L 95,1475 L 95,1474 L 94,1473 L 94,1472 L 93,1471 L 93,1469 L 92,1468 L 92,1467 L 91,1466 L 91,1465 L 90,1464 L 90,1462 L 89,1461 L 89,1460 L 88,1459 L 88,1458 L 87,1457 L 87,1455 L 86,1454 L 86,1453 L 85,1452 L 85,1451 L 84,1450 L 84,1448 L 83,1447 L 83,1446 L 82,1445 L 82,1443 L 81,1442 L 81,1441 L 80,1440 L 80,1438 L 79,1437 L 79,1435 L 78,1434 L 78,1433 L 77,1432 L 77,1430 L 76,1429 L 76,1427 L 75,1426 L 75,1425 L 74,1424 L 74,1422 L 73,1421 L 73,1419 L 72,1418 L 72,1416 L 71,1415 L 71,1413 L 70,1412 L 70,1410 L 69,1409 L 69,1407 L 68,1406 L 68,1404 L 67,1403 L 67,1401 L 66,1400 L 66,1397 L 65,1396 L 65,1394 L 64,1393 L 64,1391 L 63,1390 L 63,1387 L 62,1386 L 62,1384 L 61,1383 L 61,1381 L 60,1380 L 60,1378 L 59,1377 L 59,1373 L 58,1372 L 58,1370 L 57,1369 L 57,1367 L 56,1366 L 56,1361 L 55,1360 L 55,1358 L 54,1357 L 54,1354 L 53,1353 L 53,1350 L 52,1349 L 52,1345 L 51,1344 L 51,1341 L 50,1340 L 50,1337 L 49,1336 L 49,1330 L 48,1329 L 48,1326 L 47,1325 L 47,1321 L 46,1320 L 46,1316 L 45,1315 L 45,1309 L 44,1308 L 44,1304 L 43,1303 L 43,1298 L 42,1297 L 42,1289 L 41,1288 L 41,1282 L 40,1281 L 40,1276 L 39,1275 L 39,1263 L 38,1262 L 38,1254 L 37,1253 L 37,1244 L 36,1243 L 36,1230 L 35,1229 L 35,1149 L 36,1148 L 36,1135 L 37,1134 L 37,1124 L 38,1123 L 38,1115 L 39,1114 L 39,1103 L 40,1102 L 40,1097 L 39,1097 L 36,1094 L 34,1094 L 33,1093 L 33,1092 L 23,1082 L 23,1081 L 20,1078 L 20,1077 L 18,1075 L 18,1074 L 17,1073 L 17,1072 L 16,1071 L 16,1070 L 15,1069 L 15,1067 L 14,1066 L 14,1064 L 13,1063 L 13,1062 L 12,1061 L 12,1059 L 11,1058 L 11,1055 L 10,1054 L 10,1053 L 9,1052 L 9,1049 L 8,1048 L 8,1045 L 7,1044 L 7,1041 L 6,1040 L 6,1037 L 5,1036 L 5,1032 L 4,1031 L 4,1025 L 3,1024 L 3,1020 L 2,1019 L 2,1014 L 1,1013 L 1,1002 L 0,1001 Z" fill="black" /><path d="M 1999,439 L 1999,444 L 1998,445 L 1998,453 L 1997,454 L 1997,458 L 1996,459 L 1996,462 L 1995,463 L 1995,468 L 1994,469 L 1994,473 L 1993,474 L 1993,477 L 1992,478 L 1992,481 L 1991,482 L 1991,486 L 1990,487 L 1990,490 L 1989,491 L 1989,493 L 1988,494 L 1988,498 L 1987,499 L 1987,501 L 1986,502 L 1986,504 L 1985,505 L 1985,508 L 1984,509 L 1984,512 L 1983,513 L 1983,514 L 1982,515 L 1982,517 L 1981,518 L 1981,521 L 1980,522 L 1980,524 L 1979,525 L 1979,526 L 1978,527 L 1978,529 L 1977,530 L 1977,533 L 1976,534 L 1976,535 L 1975,536 L 1975,538 L 1974,539 L 1974,541 L 1973,542 L 1973,543 L 1972,544 L 1972,545 L 1971,546 L 1971,548 L 1970,549 L 1970,551 L 1969,552 L 1969,553 L 1968,554 L 1968,555 L 1967,556 L 1967,557 L 1966,558 L 1966,559 L 1965,560 L 1965,561 L 1964,562 L 1964,563 L 1963,564 L 1963,565 L 1962,566 L 1962,567 L 1961,568 L 1961,569 L 1960,570 L 1960,571 L 1959,572 L 1959,573 L 1957,575 L 1957,576 L 1956,577 L 1956,578 L 1954,580 L 1954,581 L 1953,582 L 1953,583 L 1951,585 L 1951,586 L 1950,587 L 1950,588 L 1947,591 L 1947,592 L 1946,593 L 1946,594 L 1944,596 L 1944,597 L 1942,599 L 1942,600 L 1939,603 L 1939,604 L 1937,606 L 1937,607 L 1935,609 L 1935,610 L 1932,613 L 1932,614 L 1928,618 L 1927,618 L 1927,620 L 1926,621 L 1926,624 L 1925,625 L 1925,627 L 1924,628 L 1924,630 L 1923,631 L 1923,633 L 1922,634 L 1922,636 L 1921,637 L 1921,638 L 1920,639 L 1920,641 L 1919,642 L 1919,644 L 1918,645 L 1918,646 L 1917,647 L 1917,648 L 1916,649 L 1916,651 L 1915,652 L 1915,653 L 1914,654 L 1914,655 L 1913,656 L 1913,657 L 1912,658 L 1912,660 L 1911,661 L 1911,662 L 1909,664 L 1909,666 L 1908,667 L 1908,668 L 1906,670 L 1906,671 L 1905,672 L 1905,673 L 1904,674 L 1904,675 L 1902,677 L 1902,678 L 1901,679 L 1901,680 L 1899,682 L 1899,683 L 1898,684 L 1898,685 L 1896,687 L 1896,688 L 1893,691 L 1893,692 L 1891,694 L 1891,695 L 1888,698 L 1888,699 L 1884,703 L 1884,704 L 1862,726 L 1861,726 L 1856,731 L 1855,731 L 1852,734 L 1851,734 L 1849,736 L 1848,736 L 1846,738 L 1845,738 L 1843,740 L 1842,740 L 1841,741 L 1840,741 L 1838,743 L 1837,743 L 1836,744 L 1835,744 L 1833,746 L 1832,746 L 1831,747 L 1830,747 L 1829,748 L 1828,748 L 1827,749 L 1826,749 L 1825,750 L 1823,750 L 1822,751 L 1821,751 L 1820,752 L 1819,752 L 1818,753 L 1817,753 L 1816,754 L 1813,754 L 1812,755 L 1810,755 L 1809,756 L 1807,756 L 1806,757 L 1799,757 L 1798,758 L 1791,758 L 1799,766 L 1799,767 L 1802,770 L 1802,771 L 1804,773 L 1804,774 L 1806,776 L 1806,777 L 1808,779 L 1808,780 L 1810,782 L 1810,783 L 1812,785 L 1812,786 L 1814,788 L 1814,789 L 1816,791 L 1816,792 L 1817,793 L 1817,794 L 1818,795 L 1818,796 L 1820,798 L 1820,799 L 1821,800 L 1821,801 L 1823,803 L 1823,804 L 1824,805 L 1824,806 L 1825,807 L 1825,808 L 1826,809 L 1826,810 L 1827,811 L 1827,812 L 1828,813 L 1828,814 L 1829,815 L 1829,816 L 1830,817 L 1830,818 L 1831,819 L 1831,820 L 1832,821 L 1832,822 L 1833,823 L 1833,824 L 1834,825 L 1834,827 L 1835,828 L 1835,829 L 1836,830 L 1836,831 L 1837,832 L 1837,834 L 1838,835 L 1838,836 L 1839,837 L 1839,838 L 1840,839 L 1840,841 L 1841,842 L 1841,844 L 1842,845 L 1842,846 L 1843,847 L 1843,849 L 1844,850 L 1844,852 L 1845,853 L 1845,855 L 1846,856 L 1846,858 L 1847,859 L 1847,861 L 1848,862 L 1848,865 L 1849,866 L 1849,868 L 1850,869 L 1850,871 L 1851,872 L 1851,875 L 1852,876 L 1852,879 L 1853,880 L 1853,882 L 1854,883 L 1854,887 L 1855,888 L 1855,891 L 1856,892 L 1856,895 L 1857,896 L 1857,899 L 1858,900 L 1858,904 L 1859,905 L 1859,908 L 1860,909 L 1860,910 L 1862,912 L 1862,913 L 1864,915 L 1864,916 L 1865,917 L 1865,918 L 1866,919 L 1866,920 L 1868,922 L 1868,923 L 1869,924 L 1869,925 L 1870,926 L 1870,927 L 1871,928 L 1871,929 L 1872,930 L 1872,931 L 1873,932 L 1873,933 L 1874,934 L 1874,935 L 1875,936 L 1875,937 L 1876,938 L 1876,939 L 1877,940 L 1877,941 L 1878,942 L 1878,944 L 1879,945 L 1879,946 L 1880,947 L 1880,948 L 1881,949 L 1881,951 L 1882,952 L 1882,954 L 1883,955 L 1883,956 L 1884,957 L 1884,959 L 1885,960 L 1885,963 L 1886,964 L 1886,966 L 1887,967 L 1887,969 L 1888,970 L 1888,973 L 1889,974 L 1889,978 L 1890,979 L 1890,982 L 1891,983 L 1891,986 L 1892,987 L 1892,994 L 1893,995 L 1893,999 L 1894,1000 L 1894,1006 L 1895,1007 L 1895,1022 L 1896,1023 L 1896,1048 L 1895,1049 L 1895,1063 L 1894,1064 L 1894,1069 L 1893,1070 L 1893,1075 L 1892,1076 L 1892,1082 L 1891,1083 L 1891,1086 L 1890,1087 L 1890,1090 L 1889,1091 L 1889,1095 L 1888,1096 L 1888,1098 L 1887,1099 L 1887,1101 L 1886,1102 L 1886,1104 L 1885,1105 L 1885,1108 L 1884,1109 L 1884,1111 L 1883,1112 L 1883,1114 L 1882,1115 L 1882,1117 L 1881,1118 L 1881,1120 L 1880,1121 L 1880,1122 L 1879,1123 L 1879,1124 L 1878,1125 L 1878,1127 L 1877,1128 L 1877,1129 L 1876,1130 L 1876,1131 L 1875,1132 L 1875,1134 L 1874,1135 L 1874,1136 L 1873,1137 L 1873,1138 L 1872,1139 L 1872,1140 L 1871,1141 L 1871,1142 L 1870,1143 L 1870,1144 L 1869,1145 L 1869,1146 L 1868,1147 L 1868,1148 L 1867,1149 L 1867,1150 L 1865,1152 L 1865,1153 L 1864,1154 L 1864,1155 L 1862,1157 L 1862,1158 L 1861,1159 L 1861,1160 L 1859,1162 L 1859,1163 L 1857,1165 L 1857,1166 L 1855,1168 L 1855,1169 L 1853,1171 L 1853,1172 L 1851,1174 L 1851,1175 L 1847,1179 L 1847,1180 L 1844,1183 L 1844,1184 L 1838,1190 L 1838,1191 L 1814,1215 L 1813,1215 L 1807,1221 L 1806,1221 L 1803,1224 L 1802,1224 L 1799,1227 L 1798,1227 L 1796,1229 L 1795,1229 L 1792,1232 L 1791,1232 L 1789,1234 L 1788,1234 L 1786,1236 L 1785,1236 L 1783,1238 L 1782,1238 L 1781,1239 L 1780,1239 L 1778,1241 L 1777,1241 L 1776,1242 L 1775,1242 L 1774,1243 L 1773,1243 L 1771,1245 L 1770,1245 L 1769,1246 L 1768,1246 L 1767,1247 L 1766,1247 L 1765,1248 L 1764,1248 L 1763,1249 L 1762,1249 L 1761,1250 L 1760,1250 L 1759,1251 L 1758,1251 L 1757,1252 L 1756,1252 L 1755,1253 L 1753,1253 L 1752,1254 L 1751,1254 L 1750,1255 L 1749,1255 L 1748,1256 L 1746,1256 L 1745,1257 L 1743,1257 L 1742,1258 L 1741,1258 L 1740,1259 L 1738,1259 L 1737,1260 L 1735,1260 L 1734,1261 L 1732,1261 L 1731,1262 L 1729,1262 L 1728,1263 L 1725,1263 L 1724,1264 L 1722,1264 L 1721,1265 L 1719,1265 L 1718,1266 L 1715,1266 L 1714,1267 L 1709,1267 L 1708,1268 L 1705,1268 L 1704,1269 L 1700,1269 L 1699,1270 L 1691,1270 L 1690,1271 L 1684,1271 L 1683,1272 L 1674,1272 L 1673,1273 L 1645,1273 L 1644,1272 L 1635,1272 L 1634,1271 L 1629,1271 L 1628,1270 L 1620,1270 L 1619,1269 L 1615,1269 L 1614,1268 L 1610,1268 L 1609,1267 L 1605,1267 L 1604,1266 L 1601,1266 L 1600,1265 L 1598,1265 L 1597,1264 L 1595,1264 L 1594,1263 L 1590,1263 L 1589,1262 L 1587,1262 L 1586,1261 L 1585,1261 L 1584,1260 L 1581,1260 L 1580,1259 L 1579,1259 L 1578,1258 L 1576,1258 L 1575,1257 L 1574,1257 L 1573,1256 L 1571,1256 L 1570,1255 L 1568,1255 L 1567,1254 L 1566,1254 L 1565,1253 L 1563,1253 L 1561,1251 L 1559,1251 L 1558,1250 L 1557,1250 L 1556,1249 L 1555,1249 L 1554,1248 L 1553,1248 L 1552,1247 L 1551,1247 L 1550,1246 L 1549,1246 L 1548,1245 L 1547,1245 L 1545,1243 L 1543,1243 L 1541,1241 L 1540,1241 L 1538,1239 L 1537,1239 L 1536,1238 L 1535,1238 L 1533,1236 L 1532,1236 L 1531,1235 L 1530,1235 L 1528,1233 L 1527,1233 L 1525,1231 L 1524,1231 L 1521,1228 L 1520,1228 L 1518,1226 L 1517,1226 L 1513,1222 L 1512,1222 L 1511,1221 L 1511,1220 L 1508,1217 L 1507,1217 L 1503,1213 L 1502,1213 L 1500,1211 L 1499,1211 L 1496,1208 L 1495,1208 L 1492,1205 L 1491,1205 L 1489,1203 L 1488,1203 L 1486,1201 L 1485,1201 L 1484,1200 L 1483,1200 L 1481,1198 L 1480,1198 L 1478,1196 L 1477,1196 L 1476,1195 L 1475,1195 L 1474,1194 L 1473,1194 L 1471,1192 L 1470,1192 L 1469,1191 L 1468,1191 L 1467,1190 L 1466,1190 L 1465,1189 L 1464,1189 L 1463,1188 L 1462,1188 L 1461,1187 L 1460,1187 L 1459,1186 L 1458,1186 L 1457,1185 L 1456,1185 L 1455,1184 L 1454,1184 L 1453,1183 L 1452,1183 L 1451,1182 L 1450,1182 L 1449,1181 L 1447,1181 L 1446,1180 L 1445,1180 L 1444,1179 L 1443,1179 L 1442,1178 L 1440,1178 L 1439,1177 L 1438,1177 L 1437,1176 L 1435,1176 L 1434,1175 L 1433,1175 L 1432,1174 L 1429,1174 L 1428,1173 L 1427,1173 L 1426,1172 L 1425,1172 L 1424,1171 L 1421,1171 L 1420,1170 L 1418,1170 L 1417,1169 L 1415,1169 L 1414,1168 L 1411,1168 L 1410,1167 L 1408,1167 L 1407,1166 L 1405,1166 L 1404,1165 L 1401,1165 L 1400,1164 L 1396,1164 L 1395,1163 L 1392,1163 L 1391,1162 L 1388,1162 L 1387,1161 L 1382,1161 L 1381,1160 L 1376,1160 L 1375,1159 L 1371,1159 L 1370,1158 L 1366,1158 L 1365,1157 L 1356,1157 L 1355,1156 L 1347,1156 L 1346,1155 L 1338,1155 L 1337,1154 L 1305,1154 L 1304,1155 L 1297,1155 L 1296,1156 L 1290,1156 L 1289,1157 L 1282,1157 L 1281,1158 L 1278,1158 L 1277,1159 L 1273,1159 L 1272,1160 L 1269,1160 L 1268,1161 L 1263,1161 L 1262,1162 L 1260,1162 L 1259,1163 L 1257,1163 L 1256,1164 L 1252,1164 L 1251,1165 L 1249,1165 L 1248,1166 L 1246,1166 L 1245,1167 L 1242,1167 L 1241,1168 L 1239,1168 L 1238,1169 L 1236,1169 L 1235,1170 L 1233,1170 L 1232,1171 L 1230,1171 L 1229,1172 L 1228,1172 L 1227,1173 L 1225,1173 L 1224,1174 L 1222,1174 L 1221,1175 L 1220,1175 L 1219,1176 L 1217,1176 L 1216,1177 L 1215,1177 L 1214,1178 L 1212,1178 L 1211,1179 L 1210,1179 L 1209,1180 L 1208,1180 L 1207,1181 L 1205,1181 L 1204,1182 L 1203,1182 L 1202,1183 L 1201,1183 L 1200,1184 L 1199,1184 L 1198,1185 L 1197,1185 L 1196,1186 L 1195,1186 L 1194,1187 L 1193,1187 L 1192,1188 L 1191,1188 L 1190,1189 L 1189,1189 L 1188,1190 L 1187,1190 L 1186,1191 L 1185,1191 L 1184,1192 L 1183,1192 L 1181,1194 L 1179,1194 L 1177,1196 L 1176,1196 L 1174,1198 L 1173,1198 L 1172,1199 L 1171,1199 L 1170,1200 L 1169,1200 L 1167,1202 L 1166,1202 L 1164,1204 L 1163,1204 L 1162,1205 L 1161,1205 L 1158,1208 L 1157,1208 L 1155,1210 L 1154,1210 L 1152,1212 L 1151,1212 L 1148,1215 L 1147,1215 L 1143,1219 L 1142,1219 L 1138,1223 L 1137,1223 L 1131,1229 L 1130,1229 L 1106,1253 L 1106,1254 L 1102,1258 L 1102,1259 L 1098,1263 L 1098,1264 L 1095,1267 L 1095,1268 L 1092,1271 L 1092,1272 L 1089,1275 L 1089,1276 L 1088,1277 L 1088,1278 L 1085,1281 L 1085,1282 L 1084,1283 L 1084,1284 L 1082,1286 L 1082,1287 L 1081,1288 L 1081,1289 L 1079,1291 L 1079,1292 L 1078,1293 L 1078,1294 L 1076,1296 L 1076,1297 L 1075,1298 L 1075,1299 L 1074,1300 L 1074,1301 L 1073,1302 L 1073,1303 L 1072,1304 L 1072,1305 L 1071,1306 L 1071,1307 L 1070,1308 L 1070,1309 L 1069,1310 L 1069,1311 L 1068,1312 L 1068,1314 L 1067,1315 L 1067,1316 L 1066,1317 L 1066,1318 L 1065,1319 L 1065,1321 L 1064,1322 L 1064,1323 L 1063,1324 L 1063,1325 L 1062,1326 L 1062,1328 L 1061,1329 L 1061,1331 L 1060,1332 L 1060,1334 L 1059,1335 L 1059,1336 L 1058,1337 L 1058,1340 L 1057,1341 L 1057,1343 L 1056,1344 L 1056,1345 L 1055,1346 L 1055,1349 L 1054,1350 L 1054,1353 L 1053,1354 L 1053,1356 L 1052,1357 L 1052,1360 L 1051,1361 L 1051,1366 L 1050,1367 L 1050,1370 L 1049,1371 L 1049,1374 L 1048,1375 L 1048,1380 L 1047,1381 L 1047,1387 L 1046,1388 L 1046,1393 L 1045,1394 L 1045,1400 L 1044,1401 L 1044,1417 L 1043,1418 L 1043,1457 L 1044,1458 L 1044,1473 L 1045,1474 L 1045,1479 L 1046,1480 L 1046,1485 L 1047,1486 L 1047,1492 L 1048,1493 L 1048,1498 L 1049,1499 L 1049,1503 L 1050,1504 L 1050,1507 L 1051,1508 L 1051,1512 L 1052,1513 L 1052,1516 L 1053,1517 L 1053,1519 L 1054,1520 L 1054,1523 L 1055,1524 L 1055,1527 L 1056,1528 L 1056,1529 L 1057,1530 L 1057,1532 L 1058,1533 L 1058,1536 L 1059,1537 L 1059,1539 L 1060,1540 L 1060,1541 L 1061,1542 L 1061,1545 L 1062,1546 L 1062,1547 L 1063,1548 L 1063,1549 L 1064,1550 L 1064,1552 L 1065,1553 L 1065,1555 L 1066,1556 L 1066,1557 L 1067,1558 L 1067,1559 L 1068,1560 L 1068,1562 L 1069,1563 L 1069,1564 L 1070,1565 L 1070,1566 L 1071,1567 L 1071,1568 L 1072,1569 L 1072,1570 L 1073,1571 L 1073,1572 L 1074,1573 L 1074,1574 L 1075,1575 L 1075,1576 L 1076,1577 L 1076,1578 L 1077,1579 L 1077,1580 L 1078,1581 L 1078,1582 L 1079,1583 L 1079,1584 L 1081,1586 L 1081,1587 L 1082,1588 L 1082,1589 L 1083,1590 L 1083,1591 L 1085,1593 L 1085,1594 L 1086,1595 L 1086,1596 L 1088,1598 L 1088,1599 L 1089,1600 L 1089,1601 L 1091,1603 L 1091,1604 L 1093,1606 L 1093,1607 L 1096,1610 L 1096,1611 L 1098,1613 L 1098,1614 L 1101,1617 L 1101,1618 L 1104,1621 L 1104,1622 L 1107,1625 L 1107,1626 L 1111,1630 L 1111,1631 L 1117,1637 L 1117,1638 L 1144,1665 L 1145,1665 L 1151,1671 L 1152,1671 L 1156,1675 L 1157,1675 L 1160,1678 L 1161,1678 L 1164,1681 L 1165,1681 L 1168,1684 L 1169,1684 L 1171,1686 L 1172,1686 L 1174,1688 L 1175,1688 L 1177,1690 L 1178,1690 L 1179,1691 L 1180,1691 L 1182,1693 L 1183,1693 L 1184,1694 L 1185,1694 L 1186,1695 L 1187,1695 L 1189,1697 L 1190,1697 L 1191,1698 L 1192,1698 L 1193,1699 L 1194,1699 L 1195,1700 L 1196,1700 L 1197,1701 L 1198,1701 L 1199,1702 L 1200,1702 L 1201,1703 L 1202,1703 L 1203,1704 L 1205,1704 L 1206,1705 L 1207,1705 L 1208,1706 L 1209,1706 L 1210,1707 L 1211,1707 L 1212,1708 L 1214,1708 L 1215,1709 L 1216,1709 L 1217,1710 L 1218,1710 L 1219,1711 L 1222,1711 L 1223,1712 L 1224,1712 L 1225,1713 L 1226,1713 L 1227,1714 L 1229,1714 L 1230,1715 L 1233,1715 L 1234,1716 L 1235,1716 L 1236,1717 L 1237,1717 L 1238,1718 L 1242,1718 L 1243,1719 L 1244,1719 L 1245,1720 L 1247,1720 L 1248,1721 L 1252,1721 L 1253,1722 L 1255,1722 L 1256,1723 L 1259,1723 L 1260,1724 L 1262,1724 L 1263,1725 L 1269,1725 L 1270,1726 L 1274,1726 L 1275,1727 L 1280,1727 L 1281,1728 L 1297,1728 L 1298,1729 L 1317,1729 L 1318,1730 L 1338,1730 L 1339,1729 L 1354,1729 L 1355,1728 L 1366,1728 L 1367,1727 L 1372,1727 L 1373,1726 L 1377,1726 L 1378,1725 L 1384,1725 L 1385,1724 L 1388,1724 L 1389,1723 L 1391,1723 L 1392,1722 L 1395,1722 L 1396,1721 L 1400,1721 L 1401,1720 L 1403,1720 L 1404,1719 L 1405,1719 L 1406,1718 L 1410,1718 L 1411,1717 L 1413,1717 L 1414,1718 L 1414,1721 L 1413,1722 L 1413,1727 L 1412,1728 L 1412,1731 L 1411,1732 L 1411,1734 L 1410,1735 L 1410,1739 L 1409,1740 L 1409,1742 L 1408,1743 L 1408,1745 L 1407,1746 L 1407,1748 L 1406,1749 L 1406,1751 L 1405,1752 L 1405,1753 L 1404,1754 L 1404,1756 L 1403,1757 L 1403,1759 L 1402,1760 L 1402,1761 L 1401,1762 L 1401,1763 L 1400,1764 L 1400,1766 L 1399,1767 L 1399,1768 L 1398,1769 L 1398,1770 L 1397,1771 L 1397,1772 L 1396,1773 L 1396,1775 L 1394,1777 L 1394,1778 L 1393,1779 L 1393,1781 L 1391,1783 L 1391,1784 L 1390,1785 L 1390,1786 L 1389,1787 L 1389,1788 L 1387,1790 L 1387,1791 L 1386,1792 L 1386,1793 L 1384,1795 L 1384,1796 L 1383,1797 L 1383,1798 L 1381,1800 L 1381,1801 L 1379,1803 L 1379,1804 L 1376,1807 L 1376,1808 L 1374,1810 L 1374,1811 L 1372,1813 L 1372,1814 L 1368,1818 L 1368,1819 L 1363,1824 L 1363,1825 L 1355,1833 L 1355,1834 L 1344,1845 L 1343,1845 L 1334,1854 L 1333,1854 L 1329,1858 L 1328,1858 L 1324,1862 L 1323,1862 L 1320,1865 L 1319,1865 L 1316,1868 L 1315,1868 L 1312,1871 L 1311,1871 L 1309,1873 L 1308,1873 L 1307,1874 L 1306,1874 L 1304,1876 L 1303,1876 L 1301,1878 L 1300,1878 L 1298,1880 L 1297,1880 L 1296,1881 L 1295,1881 L 1293,1883 L 1292,1883 L 1291,1884 L 1290,1884 L 1289,1885 L 1288,1885 L 1286,1887 L 1285,1887 L 1284,1888 L 1283,1888 L 1282,1889 L 1281,1889 L 1280,1890 L 1279,1890 L 1278,1891 L 1277,1891 L 1276,1892 L 1275,1892 L 1274,1893 L 1273,1893 L 1272,1894 L 1271,1894 L 1270,1895 L 1269,1895 L 1268,1896 L 1267,1896 L 1266,1897 L 1265,1897 L 1264,1898 L 1263,1898 L 1262,1899 L 1260,1899 L 1259,1900 L 1258,1900 L 1257,1901 L 1256,1901 L 1255,1902 L 1254,1902 L 1253,1903 L 1251,1903 L 1250,1904 L 1249,1904 L 1248,1905 L 1247,1905 L 1246,1906 L 1243,1906 L 1242,1907 L 1241,1907 L 1240,1908 L 1239,1908 L 1238,1909 L 1236,1909 L 1235,1910 L 1232,1910 L 1231,1911 L 1230,1911 L 1229,1912 L 1227,1912 L 1226,1913 L 1224,1913 L 1223,1914 L 1221,1914 L 1220,1915 L 1218,1915 L 1217,1916 L 1214,1916 L 1213,1917 L 1211,1917 L 1210,1918 L 1208,1918 L 1207,1919 L 1205,1919 L 1204,1920 L 1200,1920 L 1199,1921 L 1197,1921 L 1196,1922 L 1193,1922 L 1192,1923 L 1188,1923 L 1187,1924 L 1184,1924 L 1183,1925 L 1180,1925 L 1179,1926 L 1176,1926 L 1175,1927 L 1169,1927 L 1168,1928 L 1165,1928 L 1164,1929 L 1160,1929 L 1159,1930 L 1152,1930 L 1151,1931 L 1147,1931 L 1146,1932 L 1141,1932 L 1140,1933 L 1134,1933 L 1133,1934 L 1124,1934 L 1123,1935 L 1116,1935 L 1115,1936 L 1107,1936 L 1106,1937 L 1088,1937 L 1087,1938 L 1071,1938 L 1070,1939 L 1011,1939 L 1010,1938 L 994,1938 L 993,1937 L 974,1937 L 973,1936 L 964,1936 L 963,1935 L 956,1935 L 955,1934 L 944,1934 L 943,1933 L 936,1933 L 935,1932 L 930,1932 L 929,1931 L 924,1931 L 923,1930 L 915,1930 L 914,1929 L 909,1929 L 908,1928 L 904,1928 L 903,1927 L 896,1927 L 895,1926 L 891,1926 L 890,1925 L 886,1925 L 885,1924 L 882,1924 L 881,1923 L 875,1923 L 874,1922 L 871,1922 L 870,1921 L 867,1921 L 866,1920 L 861,1920 L 860,1919 L 857,1919 L 856,1918 L 853,1918 L 852,1917 L 848,1917 L 847,1916 L 844,1916 L 843,1915 L 841,1915 L 840,1914 L 837,1914 L 836,1913 L 832,1913 L 831,1912 L 829,1912 L 828,1911 L 826,1911 L 825,1910 L 824,1910 L 822,1912 L 822,1913 L 821,1914 L 821,1915 L 818,1918 L 818,1919 L 814,1923 L 814,1924 L 809,1929 L 808,1929 L 804,1933 L 803,1933 L 801,1935 L 800,1935 L 798,1937 L 797,1937 L 796,1938 L 795,1938 L 794,1939 L 793,1939 L 792,1940 L 791,1940 L 790,1941 L 789,1941 L 788,1942 L 786,1942 L 785,1943 L 784,1943 L 783,1944 L 779,1944 L 778,1945 L 774,1945 L 1999,1945 Z" fill="black" /><path d="M 1999,337 L 1999,344 L 1998,345 L 1998,350 L 1997,351 L 1997,353 L 1996,354 L 1996,355 L 1995,356 L 1995,358 L 1994,359 L 1994,361 L 1993,362 L 1993,363 L 1991,365 L 1991,370 L 1992,371 L 1992,372 L 1993,373 L 1993,375 L 1994,376 L 1994,379 L 1995,380 L 1995,383 L 1996,384 L 1996,387 L 1997,388 L 1997,391 L 1998,392 L 1998,399 L 1999,400 L 1999,405 Z" fill="black" /><path d="M 455,65 L 454,66 L 452,66 L 450,68 L 449,68 L 449,69 L 447,71 L 447,73 L 446,74 L 446,76 L 445,77 L 445,78 L 444,79 L 444,81 L 443,82 L 443,85 L 442,86 L 442,88 L 441,89 L 441,92 L 440,93 L 440,98 L 439,99 L 439,103 L 438,104 L 438,109 L 437,110 L 437,122 L 436,123 L 436,136 L 437,137 L 437,150 L 438,151 L 438,156 L 439,157 L 439,161 L 440,162 L 440,168 L 441,169 L 441,171 L 442,172 L 442,175 L 443,176 L 443,179 L 444,180 L 444,183 L 445,184 L 445,185 L 446,186 L 446,188 L 447,189 L 447,192 L 448,193 L 448,194 L 449,195 L 449,197 L 450,198 L 450,200 L 451,201 L 451,202 L 452,203 L 452,204 L 453,205 L 453,206 L 454,207 L 454,209 L 455,210 L 455,211 L 456,212 L 456,213 L 457,214 L 457,215 L 458,216 L 458,217 L 459,218 L 459,219 L 460,220 L 460,221 L 462,223 L 462,224 L 463,225 L 463,226 L 464,227 L 464,228 L 466,230 L 466,231 L 468,233 L 468,234 L 470,236 L 470,237 L 472,239 L 472,240 L 474,242 L 474,243 L 477,246 L 477,247 L 481,251 L 481,252 L 486,257 L 486,258 L 503,275 L 504,275 L 509,280 L 510,280 L 514,284 L 515,284 L 518,287 L 519,287 L 521,289 L 522,289 L 524,291 L 525,291 L 527,293 L 528,293 L 529,294 L 530,294 L 532,296 L 533,296 L 534,297 L 535,297 L 537,299 L 538,299 L 539,300 L 540,300 L 541,301 L 542,301 L 543,302 L 544,302 L 545,303 L 546,303 L 547,304 L 548,304 L 549,305 L 550,305 L 551,306 L 553,306 L 554,307 L 555,307 L 556,308 L 558,308 L 559,309 L 560,309 L 561,310 L 563,310 L 564,311 L 566,311 L 567,312 L 569,312 L 570,313 L 571,313 L 572,314 L 575,314 L 576,315 L 579,315 L 580,316 L 583,316 L 584,317 L 587,317 L 588,318 L 593,318 L 594,319 L 598,319 L 599,320 L 605,320 L 606,321 L 617,321 L 618,322 L 640,322 L 641,321 L 653,321 L 654,320 L 660,320 L 661,319 L 666,319 L 667,318 L 672,318 L 673,317 L 676,317 L 677,318 L 677,319 L 673,323 L 672,323 L 670,325 L 669,325 L 668,326 L 667,326 L 665,328 L 664,328 L 663,329 L 662,329 L 661,330 L 660,330 L 659,331 L 657,331 L 656,332 L 655,332 L 654,333 L 653,333 L 652,334 L 650,334 L 649,335 L 647,335 L 646,336 L 644,336 L 643,337 L 641,337 L 640,338 L 637,338 L 636,339 L 633,339 L 632,340 L 629,340 L 628,341 L 623,341 L 622,342 L 617,342 L 616,343 L 611,343 L 610,344 L 597,344 L 596,345 L 579,345 L 578,344 L 566,344 L 565,343 L 560,343 L 559,342 L 555,342 L 554,341 L 550,341 L 549,340 L 547,340 L 546,339 L 544,339 L 543,338 L 539,338 L 538,337 L 522,337 L 521,338 L 519,338 L 518,339 L 516,339 L 515,340 L 514,340 L 513,341 L 511,341 L 510,342 L 509,342 L 508,343 L 507,343 L 506,344 L 504,344 L 503,345 L 501,345 L 500,346 L 499,346 L 498,347 L 497,347 L 496,348 L 494,348 L 493,349 L 492,349 L 491,350 L 490,350 L 489,351 L 488,351 L 487,352 L 485,352 L 484,353 L 483,353 L 482,354 L 481,354 L 480,355 L 479,355 L 478,356 L 476,356 L 474,358 L 472,358 L 471,359 L 470,359 L 469,360 L 468,360 L 467,361 L 466,361 L 465,362 L 464,362 L 463,363 L 462,363 L 461,364 L 460,364 L 459,365 L 457,365 L 456,366 L 455,366 L 453,368 L 452,368 L 451,369 L 450,369 L 449,370 L 448,370 L 447,371 L 446,371 L 445,372 L 444,372 L 443,373 L 442,373 L 441,374 L 440,374 L 439,375 L 438,375 L 437,376 L 436,376 L 435,377 L 434,377 L 432,379 L 431,379 L 430,380 L 429,380 L 428,381 L 427,381 L 426,382 L 425,382 L 424,383 L 423,383 L 421,385 L 420,385 L 419,386 L 418,386 L 417,387 L 416,387 L 414,389 L 413,389 L 412,390 L 411,390 L 409,392 L 408,392 L 407,393 L 406,393 L 405,394 L 404,394 L 402,396 L 401,396 L 400,397 L 399,397 L 397,399 L 396,399 L 395,400 L 394,400 L 392,402 L 391,402 L 389,404 L 388,404 L 386,406 L 385,406 L 384,407 L 383,407 L 381,409 L 380,409 L 378,411 L 377,411 L 375,413 L 374,413 L 372,415 L 371,415 L 369,417 L 368,417 L 366,419 L 365,419 L 363,421 L 362,421 L 359,424 L 358,424 L 356,426 L 355,426 L 352,429 L 351,429 L 348,432 L 347,432 L 344,435 L 343,435 L 341,437 L 340,437 L 336,441 L 335,441 L 332,444 L 331,444 L 327,448 L 326,448 L 323,451 L 322,451 L 316,457 L 315,457 L 311,461 L 310,461 L 303,468 L 302,468 L 295,475 L 294,475 L 283,486 L 282,486 L 253,515 L 253,516 L 242,527 L 242,528 L 235,535 L 235,536 L 229,542 L 229,543 L 224,548 L 224,549 L 219,554 L 219,555 L 215,559 L 215,560 L 212,563 L 212,564 L 208,568 L 208,569 L 205,572 L 205,573 L 202,576 L 202,577 L 199,580 L 199,581 L 197,583 L 197,584 L 194,587 L 194,588 L 191,591 L 191,592 L 189,594 L 189,595 L 187,597 L 187,598 L 184,601 L 184,602 L 183,603 L 183,604 L 181,606 L 181,607 L 178,610 L 178,611 L 177,612 L 177,613 L 175,615 L 175,616 L 173,618 L 173,619 L 171,621 L 171,622 L 170,623 L 170,624 L 168,626 L 168,627 L 166,629 L 166,630 L 165,631 L 165,632 L 163,634 L 163,635 L 162,636 L 162,637 L 160,639 L 160,640 L 159,641 L 159,642 L 158,643 L 158,644 L 156,646 L 156,647 L 155,648 L 155,649 L 154,650 L 154,651 L 152,653 L 152,654 L 151,655 L 151,656 L 150,657 L 150,658 L 149,659 L 149,660 L 147,662 L 147,663 L 146,664 L 146,665 L 145,666 L 145,667 L 144,668 L 144,669 L 143,670 L 143,671 L 142,672 L 142,673 L 141,674 L 141,675 L 140,676 L 140,677 L 139,678 L 139,679 L 138,680 L 138,681 L 137,682 L 137,683 L 136,684 L 136,685 L 135,686 L 135,687 L 134,688 L 134,689 L 133,690 L 133,691 L 132,692 L 132,693 L 131,694 L 131,695 L 130,696 L 130,697 L 129,698 L 129,699 L 128,700 L 128,702 L 127,703 L 127,704 L 126,705 L 126,706 L 125,707 L 125,708 L 124,709 L 124,710 L 123,711 L 123,712 L 122,713 L 122,715 L 121,716 L 121,717 L 120,718 L 120,719 L 119,720 L 119,722 L 118,723 L 118,724 L 117,725 L 117,726 L 116,727 L 116,729 L 115,730 L 115,732 L 114,733 L 114,734 L 113,735 L 113,736 L 112,737 L 112,739 L 111,740 L 111,741 L 110,742 L 110,744 L 109,745 L 109,746 L 108,747 L 108,749 L 107,750 L 107,752 L 106,753 L 106,754 L 105,755 L 105,758 L 104,759 L 104,760 L 103,761 L 103,763 L 102,764 L 102,766 L 101,767 L 101,769 L 100,770 L 100,772 L 99,773 L 99,774 L 98,775 L 98,778 L 97,779 L 97,781 L 96,782 L 96,784 L 95,785 L 95,787 L 94,788 L 94,790 L 93,791 L 93,793 L 92,794 L 92,796 L 91,797 L 91,800 L 90,801 L 90,804 L 89,805 L 89,807 L 88,808 L 88,811 L 87,812 L 87,815 L 86,816 L 86,818 L 85,819 L 85,822 L 84,823 L 84,826 L 83,827 L 83,830 L 82,831 L 82,834 L 81,835 L 81,839 L 80,840 L 80,843 L 79,844 L 79,847 L 78,848 L 78,852 L 77,853 L 77,858 L 76,859 L 76,862 L 75,863 L 75,867 L 74,868 L 74,874 L 73,875 L 73,879 L 72,880 L 72,885 L 71,886 L 71,894 L 70,895 L 70,901 L 69,902 L 69,908 L 68,909 L 68,918 L 67,919 L 67,935 L 66,936 L 66,985 L 67,986 L 67,999 L 68,1000 L 68,1006 L 69,1007 L 69,1012 L 70,1013 L 70,1017 L 71,1018 L 71,1023 L 72,1024 L 72,1026 L 73,1027 L 73,1030 L 74,1031 L 74,1034 L 75,1035 L 75,1037 L 76,1038 L 76,1039 L 77,1040 L 77,1042 L 79,1042 L 79,1039 L 80,1038 L 80,1036 L 81,1035 L 81,1033 L 82,1032 L 82,1029 L 83,1028 L 83,1026 L 84,1025 L 84,1023 L 85,1022 L 85,1019 L 86,1018 L 86,1016 L 87,1015 L 87,1014 L 88,1013 L 88,1011 L 89,1010 L 89,1008 L 90,1007 L 90,1005 L 91,1004 L 91,1003 L 92,1002 L 92,999 L 93,998 L 93,997 L 94,996 L 94,994 L 95,993 L 95,992 L 96,991 L 96,989 L 97,988 L 97,987 L 98,986 L 98,985 L 99,984 L 99,982 L 100,981 L 100,980 L 101,979 L 101,978 L 102,977 L 102,975 L 103,974 L 103,973 L 104,972 L 104,971 L 105,970 L 105,969 L 106,968 L 106,966 L 107,965 L 107,964 L 108,963 L 108,962 L 109,961 L 109,960 L 110,959 L 110,958 L 111,957 L 111,956 L 112,955 L 112,954 L 113,953 L 113,952 L 115,950 L 115,949 L 116,948 L 116,947 L 117,946 L 117,945 L 118,944 L 118,943 L 119,942 L 119,941 L 121,939 L 121,938 L 122,937 L 122,936 L 123,935 L 123,934 L 125,932 L 125,931 L 127,929 L 127,928 L 128,927 L 128,926 L 130,924 L 130,923 L 132,921 L 132,920 L 134,918 L 134,917 L 136,915 L 136,914 L 138,912 L 138,911 L 141,908 L 141,907 L 143,905 L 143,904 L 147,900 L 147,899 L 150,896 L 150,895 L 154,891 L 154,890 L 159,885 L 159,884 L 165,878 L 165,877 L 175,867 L 175,866 L 180,861 L 181,862 L 181,863 L 180,864 L 180,865 L 179,866 L 179,867 L 178,868 L 178,869 L 177,870 L 177,871 L 176,872 L 176,873 L 175,874 L 175,875 L 174,876 L 174,877 L 173,878 L 173,879 L 172,880 L 172,882 L 171,883 L 171,884 L 170,885 L 170,886 L 169,887 L 169,888 L 168,889 L 168,890 L 167,891 L 167,893 L 166,894 L 166,895 L 165,896 L 165,897 L 164,898 L 164,899 L 163,900 L 163,902 L 162,903 L 162,904 L 161,905 L 161,906 L 160,907 L 160,909 L 159,910 L 159,911 L 158,912 L 158,914 L 157,915 L 157,916 L 156,917 L 156,919 L 155,920 L 155,921 L 154,922 L 154,923 L 153,924 L 153,926 L 152,927 L 152,929 L 151,930 L 151,931 L 150,932 L 150,934 L 149,935 L 149,937 L 148,938 L 148,939 L 147,940 L 147,942 L 146,943 L 146,945 L 145,946 L 145,948 L 144,949 L 144,950 L 143,951 L 143,953 L 142,954 L 142,956 L 141,957 L 141,959 L 140,960 L 140,962 L 139,963 L 139,965 L 138,966 L 138,968 L 137,969 L 137,971 L 136,972 L 136,975 L 135,976 L 135,978 L 134,979 L 134,981 L 133,982 L 133,984 L 132,985 L 132,988 L 131,989 L 131,991 L 130,992 L 130,994 L 129,995 L 129,998 L 128,999 L 128,1002 L 127,1003 L 127,1005 L 126,1006 L 126,1009 L 125,1010 L 125,1013 L 124,1014 L 124,1017 L 123,1018 L 123,1021 L 122,1022 L 122,1026 L 121,1027 L 121,1030 L 120,1031 L 120,1033 L 119,1034 L 119,1039 L 118,1040 L 118,1043 L 117,1044 L 117,1048 L 116,1049 L 116,1052 L 115,1053 L 115,1059 L 114,1060 L 114,1063 L 113,1064 L 113,1069 L 112,1070 L 112,1076 L 111,1077 L 111,1082 L 110,1083 L 110,1088 L 109,1089 L 109,1095 L 108,1096 L 108,1104 L 107,1105 L 107,1111 L 106,1112 L 106,1120 L 105,1121 L 105,1135 L 104,1136 L 104,1148 L 103,1149 L 103,1166 L 102,1167 L 102,1209 L 103,1210 L 103,1226 L 104,1227 L 104,1239 L 105,1240 L 105,1254 L 106,1255 L 106,1262 L 107,1263 L 107,1269 L 108,1270 L 108,1278 L 109,1279 L 109,1285 L 110,1286 L 110,1291 L 111,1292 L 111,1296 L 112,1297 L 112,1304 L 113,1305 L 113,1309 L 114,1310 L 114,1313 L 115,1314 L 115,1319 L 116,1320 L 116,1324 L 117,1325 L 117,1328 L 118,1329 L 118,1332 L 119,1333 L 119,1337 L 120,1338 L 120,1341 L 121,1342 L 121,1345 L 122,1346 L 122,1349 L 123,1350 L 123,1353 L 124,1354 L 124,1356 L 125,1357 L 125,1360 L 126,1361 L 126,1364 L 127,1365 L 127,1367 L 128,1368 L 128,1370 L 129,1371 L 129,1374 L 130,1375 L 130,1377 L 131,1378 L 131,1380 L 132,1381 L 132,1384 L 133,1385 L 133,1387 L 134,1388 L 134,1389 L 135,1390 L 135,1392 L 136,1393 L 136,1396 L 137,1397 L 137,1398 L 138,1399 L 138,1401 L 139,1402 L 139,1404 L 140,1405 L 140,1407 L 141,1408 L 141,1409 L 142,1410 L 142,1412 L 143,1413 L 143,1415 L 144,1416 L 144,1417 L 145,1418 L 145,1419 L 146,1420 L 146,1422 L 147,1423 L 147,1424 L 148,1425 L 148,1427 L 149,1428 L 149,1429 L 150,1430 L 150,1432 L 151,1433 L 151,1434 L 152,1435 L 152,1436 L 153,1437 L 153,1439 L 154,1440 L 154,1441 L 155,1442 L 155,1443 L 156,1444 L 156,1445 L 157,1446 L 157,1447 L 158,1448 L 158,1449 L 159,1450 L 159,1452 L 160,1453 L 160,1454 L 161,1455 L 161,1456 L 162,1457 L 162,1458 L 163,1459 L 163,1460 L 164,1461 L 164,1462 L 165,1463 L 165,1464 L 166,1465 L 166,1466 L 167,1467 L 167,1468 L 168,1469 L 168,1470 L 170,1472 L 170,1473 L 171,1474 L 171,1475 L 172,1476 L 172,1477 L 173,1478 L 173,1479 L 174,1480 L 174,1481 L 176,1483 L 176,1484 L 177,1485 L 177,1486 L 178,1487 L 178,1488 L 180,1490 L 180,1491 L 181,1492 L 181,1493 L 183,1495 L 183,1496 L 184,1497 L 184,1498 L 186,1500 L 186,1501 L 187,1502 L 187,1503 L 189,1505 L 189,1506 L 191,1508 L 191,1509 L 193,1511 L 193,1512 L 195,1514 L 195,1515 L 197,1517 L 197,1518 L 199,1520 L 199,1521 L 201,1523 L 201,1524 L 204,1527 L 204,1528 L 207,1531 L 207,1532 L 210,1535 L 210,1536 L 213,1539 L 213,1540 L 217,1544 L 217,1545 L 222,1550 L 222,1551 L 228,1557 L 228,1558 L 240,1570 L 240,1571 L 245,1576 L 246,1576 L 258,1588 L 259,1588 L 263,1592 L 263,1587 L 262,1586 L 262,1584 L 261,1583 L 261,1581 L 260,1580 L 260,1577 L 259,1576 L 259,1574 L 258,1573 L 258,1570 L 257,1569 L 257,1566 L 256,1565 L 256,1561 L 255,1560 L 255,1558 L 254,1557 L 254,1553 L 253,1552 L 253,1547 L 252,1546 L 252,1542 L 251,1541 L 251,1537 L 250,1536 L 250,1530 L 249,1529 L 249,1522 L 248,1521 L 248,1515 L 247,1514 L 247,1507 L 246,1506 L 246,1486 L 245,1485 L 245,1457 L 246,1456 L 246,1437 L 247,1436 L 247,1428 L 248,1427 L 248,1421 L 249,1420 L 249,1414 L 250,1413 L 250,1407 L 251,1406 L 251,1402 L 252,1401 L 252,1398 L 253,1397 L 253,1392 L 254,1391 L 254,1388 L 255,1387 L 256,1388 L 256,1394 L 257,1395 L 257,1398 L 258,1399 L 258,1403 L 259,1404 L 259,1410 L 260,1411 L 260,1414 L 261,1415 L 261,1418 L 262,1419 L 262,1424 L 263,1425 L 263,1429 L 264,1430 L 264,1433 L 265,1434 L 265,1437 L 266,1438 L 266,1442 L 267,1443 L 267,1446 L 268,1447 L 268,1449 L 269,1450 L 269,1454 L 270,1455 L 270,1458 L 271,1459 L 271,1461 L 272,1462 L 272,1465 L 273,1466 L 273,1469 L 274,1470 L 274,1472 L 275,1473 L 275,1476 L 276,1477 L 276,1480 L 277,1481 L 277,1483 L 278,1484 L 278,1486 L 279,1487 L 279,1490 L 280,1491 L 280,1493 L 281,1494 L 281,1496 L 282,1497 L 282,1499 L 283,1500 L 283,1502 L 284,1503 L 284,1505 L 285,1506 L 285,1508 L 286,1509 L 286,1511 L 287,1512 L 287,1514 L 288,1515 L 288,1517 L 289,1518 L 289,1520 L 290,1521 L 290,1523 L 291,1524 L 291,1525 L 292,1526 L 292,1528 L 293,1529 L 293,1531 L 294,1532 L 294,1533 L 295,1534 L 295,1536 L 296,1537 L 296,1539 L 297,1540 L 297,1541 L 298,1542 L 298,1543 L 299,1544 L 299,1546 L 300,1547 L 300,1549 L 301,1550 L 301,1551 L 302,1552 L 302,1553 L 303,1554 L 303,1556 L 304,1557 L 304,1558 L 305,1559 L 305,1560 L 306,1561 L 306,1562 L 307,1563 L 307,1565 L 308,1566 L 308,1567 L 309,1568 L 309,1569 L 310,1570 L 310,1572 L 311,1573 L 311,1574 L 312,1575 L 312,1576 L 313,1577 L 313,1578 L 314,1579 L 314,1580 L 315,1581 L 315,1582 L 316,1583 L 316,1584 L 317,1585 L 317,1586 L 318,1587 L 318,1588 L 319,1589 L 319,1590 L 320,1591 L 320,1592 L 321,1593 L 321,1594 L 322,1595 L 322,1596 L 323,1597 L 323,1598 L 324,1599 L 324,1600 L 325,1601 L 325,1602 L 327,1604 L 327,1606 L 328,1607 L 328,1608 L 330,1610 L 330,1611 L 331,1612 L 331,1613 L 332,1614 L 332,1615 L 334,1617 L 334,1618 L 335,1619 L 335,1620 L 336,1621 L 336,1622 L 338,1624 L 338,1625 L 339,1626 L 339,1627 L 341,1629 L 341,1630 L 342,1631 L 342,1632 L 344,1634 L 344,1635 L 345,1636 L 345,1637 L 347,1639 L 347,1640 L 349,1642 L 349,1643 L 351,1645 L 351,1646 L 353,1648 L 353,1649 L 355,1651 L 355,1652 L 357,1654 L 357,1655 L 359,1657 L 359,1658 L 362,1661 L 362,1662 L 364,1664 L 364,1665 L 367,1668 L 367,1669 L 369,1671 L 369,1672 L 372,1675 L 372,1676 L 376,1680 L 376,1681 L 379,1684 L 379,1685 L 384,1690 L 384,1691 L 389,1696 L 389,1697 L 396,1704 L 396,1705 L 406,1715 L 406,1716 L 425,1735 L 426,1735 L 438,1747 L 439,1747 L 445,1753 L 446,1753 L 450,1757 L 451,1757 L 456,1762 L 457,1762 L 461,1766 L 462,1766 L 465,1769 L 466,1769 L 469,1772 L 470,1772 L 473,1775 L 474,1775 L 476,1777 L 477,1777 L 480,1780 L 481,1780 L 483,1782 L 484,1782 L 486,1784 L 487,1784 L 489,1786 L 490,1786 L 492,1788 L 493,1788 L 495,1790 L 496,1790 L 498,1792 L 499,1792 L 500,1793 L 501,1793 L 503,1795 L 504,1795 L 506,1797 L 507,1797 L 508,1798 L 509,1798 L 511,1800 L 512,1800 L 513,1801 L 514,1801 L 515,1802 L 516,1802 L 518,1804 L 519,1804 L 520,1805 L 521,1805 L 522,1806 L 523,1806 L 525,1808 L 526,1808 L 527,1809 L 528,1809 L 529,1810 L 530,1810 L 531,1811 L 532,1811 L 533,1812 L 534,1812 L 535,1813 L 536,1813 L 538,1815 L 539,1815 L 540,1816 L 542,1816 L 544,1818 L 545,1818 L 546,1819 L 548,1819 L 550,1821 L 551,1821 L 552,1822 L 554,1822 L 555,1823 L 556,1823 L 557,1824 L 558,1824 L 559,1825 L 560,1825 L 561,1826 L 562,1826 L 563,1827 L 564,1827 L 565,1828 L 567,1828 L 568,1829 L 569,1829 L 570,1830 L 571,1830 L 572,1831 L 574,1831 L 575,1832 L 576,1832 L 577,1833 L 579,1833 L 580,1834 L 581,1834 L 582,1835 L 583,1835 L 584,1836 L 586,1836 L 587,1837 L 588,1837 L 589,1838 L 591,1838 L 592,1839 L 593,1839 L 594,1840 L 596,1840 L 597,1841 L 599,1841 L 600,1842 L 601,1842 L 602,1843 L 604,1843 L 605,1844 L 607,1844 L 608,1845 L 610,1845 L 611,1846 L 613,1846 L 614,1847 L 616,1847 L 617,1848 L 619,1848 L 620,1849 L 622,1849 L 623,1850 L 625,1850 L 626,1851 L 628,1851 L 629,1852 L 631,1852 L 632,1853 L 634,1853 L 635,1854 L 638,1854 L 639,1855 L 641,1855 L 642,1856 L 644,1856 L 645,1857 L 649,1857 L 650,1858 L 652,1858 L 653,1859 L 656,1859 L 657,1860 L 660,1860 L 661,1861 L 664,1861 L 665,1862 L 667,1862 L 668,1863 L 672,1863 L 673,1864 L 677,1864 L 678,1865 L 681,1865 L 682,1866 L 685,1866 L 686,1867 L 691,1867 L 692,1868 L 695,1868 L 696,1869 L 699,1869 L 700,1870 L 705,1870 L 706,1871 L 711,1871 L 712,1872 L 716,1872 L 717,1873 L 722,1873 L 723,1874 L 730,1874 L 731,1875 L 736,1875 L 737,1876 L 742,1876 L 743,1877 L 750,1877 L 751,1878 L 760,1878 L 761,1879 L 768,1879 L 769,1880 L 770,1879 L 769,1878 L 768,1878 L 767,1877 L 766,1877 L 765,1876 L 764,1876 L 763,1875 L 762,1875 L 761,1874 L 760,1874 L 759,1873 L 758,1873 L 757,1872 L 756,1872 L 755,1871 L 754,1871 L 753,1870 L 752,1870 L 750,1868 L 749,1868 L 748,1867 L 747,1867 L 745,1865 L 744,1865 L 742,1863 L 741,1863 L 739,1861 L 738,1861 L 736,1859 L 735,1859 L 732,1856 L 731,1856 L 728,1853 L 727,1853 L 723,1849 L 722,1849 L 716,1843 L 715,1843 L 691,1819 L 691,1818 L 686,1813 L 686,1812 L 681,1807 L 681,1806 L 678,1803 L 678,1802 L 675,1799 L 675,1798 L 673,1796 L 673,1795 L 670,1792 L 670,1791 L 668,1789 L 668,1788 L 666,1786 L 666,1785 L 665,1784 L 665,1783 L 663,1781 L 663,1780 L 661,1778 L 661,1777 L 660,1776 L 660,1775 L 659,1774 L 659,1773 L 657,1771 L 657,1770 L 656,1769 L 656,1768 L 655,1767 L 655,1766 L 654,1765 L 654,1764 L 653,1763 L 653,1762 L 652,1761 L 652,1760 L 651,1759 L 651,1758 L 650,1757 L 650,1756 L 649,1755 L 649,1754 L 648,1753 L 648,1752 L 647,1751 L 647,1750 L 646,1749 L 646,1747 L 645,1746 L 645,1745 L 646,1744 L 652,1750 L 653,1750 L 661,1758 L 662,1758 L 663,1759 L 663,1760 L 664,1760 L 668,1764 L 669,1764 L 672,1767 L 673,1767 L 677,1771 L 678,1771 L 681,1774 L 682,1774 L 684,1776 L 685,1776 L 687,1778 L 688,1778 L 690,1780 L 691,1780 L 693,1782 L 694,1782 L 696,1784 L 697,1784 L 698,1785 L 699,1785 L 701,1787 L 702,1787 L 704,1789 L 705,1789 L 706,1790 L 707,1790 L 709,1792 L 710,1792 L 711,1793 L 712,1793 L 713,1794 L 714,1794 L 715,1795 L 716,1795 L 718,1797 L 719,1797 L 720,1798 L 721,1798 L 722,1799 L 723,1799 L 724,1800 L 725,1800 L 726,1801 L 727,1801 L 728,1802 L 729,1802 L 730,1803 L 731,1803 L 733,1805 L 735,1805 L 736,1806 L 737,1806 L 738,1807 L 739,1807 L 740,1808 L 741,1808 L 742,1809 L 743,1809 L 744,1810 L 745,1810 L 746,1811 L 747,1811 L 748,1812 L 749,1812 L 750,1813 L 752,1813 L 753,1814 L 754,1814 L 755,1815 L 756,1815 L 757,1816 L 759,1816 L 760,1817 L 761,1817 L 762,1818 L 763,1818 L 764,1819 L 766,1819 L 767,1820 L 768,1820 L 769,1821 L 770,1821 L 771,1822 L 773,1822 L 774,1823 L 776,1823 L 777,1824 L 778,1824 L 779,1825 L 780,1825 L 781,1826 L 784,1826 L 785,1827 L 786,1827 L 787,1828 L 788,1828 L 789,1829 L 791,1829 L 792,1830 L 794,1830 L 795,1831 L 797,1831 L 798,1832 L 800,1832 L 801,1833 L 803,1833 L 804,1834 L 806,1834 L 807,1835 L 809,1835 L 810,1836 L 812,1836 L 813,1837 L 815,1837 L 816,1838 L 818,1838 L 819,1839 L 821,1839 L 822,1840 L 825,1840 L 826,1841 L 828,1841 L 829,1842 L 831,1842 L 832,1843 L 835,1843 L 836,1844 L 839,1844 L 840,1845 L 842,1845 L 843,1846 L 846,1846 L 847,1847 L 850,1847 L 851,1848 L 854,1848 L 855,1849 L 857,1849 L 858,1850 L 863,1850 L 864,1851 L 866,1851 L 867,1852 L 870,1852 L 871,1853 L 875,1853 L 876,1854 L 880,1854 L 881,1855 L 884,1855 L 885,1856 L 889,1856 L 890,1857 L 895,1857 L 896,1858 L 899,1858 L 900,1859 L 904,1859 L 905,1860 L 910,1860 L 911,1861 L 917,1861 L 918,1862 L 922,1862 L 923,1863 L 928,1863 L 929,1864 L 937,1864 L 938,1865 L 943,1865 L 944,1866 L 951,1866 L 952,1867 L 961,1867 L 962,1868 L 971,1868 L 972,1869 L 981,1869 L 982,1870 L 994,1870 L 995,1871 L 1027,1871 L 1028,1872 L 1052,1872 L 1053,1871 L 1083,1871 L 1084,1870 L 1095,1870 L 1096,1869 L 1104,1869 L 1105,1868 L 1113,1868 L 1114,1867 L 1122,1867 L 1123,1866 L 1128,1866 L 1129,1865 L 1134,1865 L 1135,1864 L 1141,1864 L 1142,1863 L 1146,1863 L 1147,1862 L 1151,1862 L 1152,1861 L 1156,1861 L 1157,1860 L 1161,1860 L 1162,1859 L 1165,1859 L 1166,1858 L 1168,1858 L 1169,1857 L 1173,1857 L 1174,1856 L 1177,1856 L 1178,1855 L 1180,1855 L 1181,1854 L 1184,1854 L 1185,1853 L 1187,1853 L 1188,1852 L 1190,1852 L 1191,1851 L 1193,1851 L 1194,1850 L 1197,1850 L 1198,1849 L 1200,1849 L 1201,1848 L 1202,1848 L 1203,1847 L 1205,1847 L 1206,1846 L 1208,1846 L 1209,1845 L 1210,1845 L 1211,1844 L 1213,1844 L 1214,1843 L 1216,1843 L 1217,1842 L 1218,1842 L 1219,1841 L 1220,1841 L 1221,1840 L 1222,1840 L 1223,1839 L 1225,1839 L 1226,1838 L 1227,1838 L 1228,1837 L 1229,1837 L 1230,1836 L 1231,1836 L 1232,1835 L 1233,1835 L 1234,1834 L 1235,1834 L 1236,1833 L 1237,1833 L 1238,1832 L 1239,1832 L 1241,1830 L 1242,1830 L 1243,1829 L 1244,1829 L 1245,1828 L 1246,1828 L 1248,1826 L 1249,1826 L 1250,1825 L 1251,1825 L 1253,1823 L 1254,1823 L 1256,1821 L 1257,1821 L 1259,1819 L 1260,1819 L 1263,1816 L 1264,1816 L 1267,1813 L 1268,1813 L 1273,1808 L 1274,1808 L 1285,1797 L 1285,1796 L 1284,1795 L 1273,1795 L 1272,1794 L 1265,1794 L 1264,1793 L 1260,1793 L 1259,1792 L 1255,1792 L 1254,1791 L 1249,1791 L 1248,1790 L 1245,1790 L 1244,1789 L 1242,1789 L 1241,1788 L 1237,1788 L 1236,1787 L 1233,1787 L 1232,1786 L 1230,1786 L 1229,1785 L 1227,1785 L 1226,1784 L 1223,1784 L 1222,1783 L 1220,1783 L 1219,1782 L 1218,1782 L 1217,1781 L 1214,1781 L 1213,1780 L 1211,1780 L 1210,1779 L 1209,1779 L 1208,1778 L 1206,1778 L 1205,1777 L 1203,1777 L 1202,1776 L 1200,1776 L 1199,1775 L 1198,1775 L 1197,1774 L 1195,1774 L 1194,1773 L 1193,1773 L 1192,1772 L 1190,1772 L 1189,1771 L 1188,1771 L 1187,1770 L 1185,1770 L 1184,1769 L 1183,1769 L 1182,1768 L 1181,1768 L 1180,1767 L 1178,1767 L 1177,1766 L 1176,1766 L 1175,1765 L 1174,1765 L 1173,1764 L 1172,1764 L 1171,1763 L 1170,1763 L 1169,1762 L 1168,1762 L 1167,1761 L 1166,1761 L 1165,1760 L 1164,1760 L 1163,1759 L 1162,1759 L 1161,1758 L 1160,1758 L 1159,1757 L 1158,1757 L 1157,1756 L 1156,1756 L 1155,1755 L 1154,1755 L 1153,1754 L 1152,1754 L 1151,1753 L 1150,1753 L 1148,1751 L 1147,1751 L 1146,1750 L 1145,1750 L 1143,1748 L 1142,1748 L 1141,1747 L 1140,1747 L 1138,1745 L 1137,1745 L 1135,1743 L 1134,1743 L 1132,1741 L 1131,1741 L 1129,1739 L 1128,1739 L 1126,1737 L 1125,1737 L 1122,1734 L 1121,1734 L 1119,1732 L 1118,1732 L 1114,1728 L 1113,1728 L 1110,1725 L 1109,1725 L 1105,1721 L 1104,1721 L 1099,1716 L 1098,1716 L 1088,1706 L 1087,1706 L 1069,1688 L 1069,1687 L 1060,1678 L 1060,1677 L 1055,1672 L 1055,1671 L 1051,1667 L 1051,1666 L 1047,1662 L 1047,1661 L 1044,1658 L 1044,1657 L 1041,1654 L 1041,1653 L 1039,1651 L 1039,1650 L 1036,1647 L 1036,1646 L 1034,1644 L 1034,1643 L 1032,1641 L 1032,1640 L 1030,1638 L 1030,1637 L 1029,1636 L 1029,1635 L 1027,1633 L 1027,1632 L 1025,1630 L 1025,1629 L 1024,1628 L 1024,1627 L 1022,1625 L 1022,1624 L 1021,1623 L 1021,1622 L 1020,1621 L 1020,1620 L 1019,1619 L 1019,1618 L 1017,1616 L 1017,1615 L 1016,1614 L 1016,1613 L 1015,1612 L 1015,1611 L 1014,1610 L 1014,1609 L 1013,1608 L 1013,1607 L 1012,1606 L 1012,1605 L 1011,1604 L 1011,1603 L 1010,1602 L 1010,1601 L 1009,1600 L 1009,1599 L 1008,1598 L 1008,1597 L 1007,1596 L 1007,1595 L 1006,1594 L 1006,1593 L 1005,1592 L 1005,1590 L 1004,1589 L 1004,1588 L 1003,1587 L 1003,1586 L 1002,1585 L 1002,1584 L 1001,1583 L 1001,1581 L 1000,1580 L 1000,1579 L 999,1578 L 999,1577 L 998,1576 L 998,1574 L 997,1573 L 997,1571 L 996,1570 L 996,1569 L 995,1568 L 995,1566 L 994,1565 L 994,1563 L 993,1562 L 993,1561 L 992,1560 L 992,1557 L 991,1556 L 991,1554 L 990,1553 L 990,1551 L 989,1550 L 989,1549 L 988,1548 L 988,1544 L 987,1543 L 987,1541 L 986,1540 L 986,1538 L 985,1537 L 985,1534 L 984,1533 L 984,1530 L 983,1529 L 983,1527 L 982,1526 L 982,1522 L 981,1521 L 981,1517 L 980,1516 L 980,1513 L 979,1512 L 979,1508 L 978,1507 L 978,1502 L 977,1501 L 977,1496 L 976,1495 L 976,1490 L 975,1489 L 975,1483 L 974,1482 L 974,1472 L 973,1471 L 973,1463 L 972,1462 L 972,1450 L 971,1449 L 971,1419 L 972,1418 L 972,1407 L 973,1406 L 973,1399 L 974,1398 L 974,1390 L 975,1389 L 975,1383 L 976,1382 L 976,1378 L 977,1377 L 977,1373 L 978,1372 L 978,1367 L 979,1366 L 979,1363 L 980,1362 L 980,1360 L 981,1359 L 981,1355 L 982,1354 L 982,1351 L 983,1350 L 983,1348 L 984,1347 L 984,1344 L 985,1343 L 985,1340 L 986,1339 L 986,1338 L 987,1337 L 987,1335 L 988,1334 L 988,1331 L 989,1330 L 989,1328 L 990,1327 L 990,1326 L 991,1325 L 991,1323 L 992,1322 L 992,1320 L 993,1319 L 993,1318 L 994,1317 L 994,1315 L 995,1314 L 995,1312 L 996,1311 L 996,1310 L 997,1309 L 997,1308 L 998,1307 L 998,1305 L 999,1304 L 999,1303 L 1000,1302 L 1000,1301 L 1001,1300 L 1001,1298 L 1002,1297 L 1002,1296 L 1003,1295 L 1003,1294 L 1004,1293 L 1004,1292 L 1005,1291 L 1005,1290 L 1006,1289 L 1006,1288 L 1007,1287 L 1007,1286 L 1008,1285 L 1008,1284 L 1009,1283 L 1009,1282 L 1010,1281 L 1010,1280 L 1011,1279 L 1011,1278 L 1012,1277 L 1012,1276 L 1013,1275 L 1013,1274 L 1015,1272 L 1015,1270 L 1017,1268 L 1017,1267 L 1018,1266 L 1018,1265 L 1020,1263 L 1020,1262 L 1021,1261 L 1021,1260 L 1023,1258 L 1023,1257 L 1024,1256 L 1024,1255 L 1026,1253 L 1026,1252 L 1028,1250 L 1028,1249 L 1030,1247 L 1030,1246 L 1032,1244 L 1032,1243 L 1034,1241 L 1034,1240 L 1036,1238 L 1036,1237 L 1039,1234 L 1039,1233 L 1041,1231 L 1041,1230 L 1044,1227 L 1044,1226 L 1047,1223 L 1047,1222 L 1051,1218 L 1051,1217 L 1056,1212 L 1056,1211 L 1061,1206 L 1061,1205 L 1068,1198 L 1068,1197 L 1096,1169 L 1097,1169 L 1098,1168 L 1098,1167 L 1094,1167 L 1093,1168 L 1088,1168 L 1087,1169 L 1079,1169 L 1078,1170 L 1071,1170 L 1070,1171 L 1059,1171 L 1058,1172 L 1027,1172 L 1026,1171 L 1015,1171 L 1014,1170 L 1006,1170 L 1005,1169 L 996,1169 L 995,1168 L 989,1168 L 988,1167 L 984,1167 L 983,1166 L 979,1166 L 978,1165 L 972,1165 L 971,1164 L 968,1164 L 967,1163 L 964,1163 L 963,1162 L 958,1162 L 957,1161 L 955,1161 L 954,1160 L 952,1160 L 951,1159 L 947,1159 L 946,1158 L 943,1158 L 942,1157 L 940,1157 L 939,1156 L 937,1156 L 936,1155 L 933,1155 L 932,1154 L 930,1154 L 929,1153 L 928,1153 L 927,1152 L 924,1152 L 923,1151 L 921,1151 L 920,1150 L 919,1150 L 918,1149 L 916,1149 L 915,1148 L 913,1148 L 912,1147 L 910,1147 L 909,1146 L 908,1146 L 907,1145 L 905,1145 L 904,1144 L 902,1144 L 901,1143 L 900,1143 L 899,1142 L 898,1142 L 897,1141 L 895,1141 L 894,1140 L 893,1140 L 892,1139 L 891,1139 L 890,1138 L 888,1138 L 887,1137 L 886,1137 L 885,1136 L 884,1136 L 883,1135 L 881,1135 L 880,1134 L 879,1134 L 878,1133 L 877,1133 L 876,1132 L 875,1132 L 874,1131 L 873,1131 L 872,1130 L 871,1130 L 870,1129 L 869,1129 L 868,1128 L 867,1128 L 866,1127 L 865,1127 L 864,1126 L 863,1126 L 862,1125 L 861,1125 L 860,1124 L 859,1124 L 857,1122 L 856,1122 L 855,1121 L 854,1121 L 853,1120 L 852,1120 L 851,1119 L 850,1119 L 849,1118 L 848,1118 L 846,1116 L 845,1116 L 844,1115 L 843,1115 L 842,1114 L 841,1114 L 839,1112 L 838,1112 L 836,1110 L 835,1110 L 833,1108 L 832,1108 L 831,1107 L 830,1107 L 828,1105 L 827,1105 L 825,1103 L 824,1103 L 822,1101 L 821,1101 L 819,1099 L 818,1099 L 816,1097 L 815,1097 L 812,1094 L 811,1094 L 809,1092 L 808,1092 L 805,1089 L 804,1089 L 801,1086 L 800,1086 L 796,1082 L 795,1082 L 791,1078 L 790,1078 L 785,1073 L 784,1073 L 777,1066 L 776,1066 L 744,1034 L 744,1033 L 738,1027 L 738,1026 L 733,1021 L 733,1020 L 729,1016 L 729,1015 L 725,1011 L 725,1010 L 722,1007 L 722,1006 L 720,1004 L 720,1003 L 717,1000 L 717,999 L 715,997 L 715,996 L 713,994 L 713,993 L 711,991 L 711,990 L 709,988 L 709,987 L 707,985 L 707,984 L 705,982 L 705,981 L 704,980 L 704,979 L 702,977 L 702,976 L 701,975 L 701,974 L 699,972 L 699,971 L 698,970 L 698,969 L 697,968 L 697,967 L 695,965 L 695,964 L 694,963 L 694,962 L 693,961 L 693,960 L 692,959 L 692,958 L 691,957 L 691,956 L 690,955 L 690,954 L 688,952 L 688,951 L 687,950 L 687,948 L 686,947 L 686,946 L 685,945 L 685,944 L 684,943 L 684,942 L 683,941 L 683,940 L 682,939 L 682,938 L 681,937 L 681,936 L 680,935 L 680,933 L 679,932 L 679,931 L 678,930 L 678,929 L 677,928 L 677,926 L 676,925 L 676,924 L 675,923 L 675,921 L 674,920 L 674,919 L 673,918 L 673,916 L 672,915 L 672,913 L 671,912 L 671,911 L 670,910 L 670,907 L 669,906 L 669,905 L 668,904 L 668,902 L 667,901 L 667,899 L 666,898 L 666,895 L 665,894 L 665,893 L 664,892 L 664,889 L 663,888 L 663,885 L 662,884 L 662,882 L 661,881 L 661,879 L 660,878 L 660,874 L 659,873 L 659,870 L 658,869 L 658,866 L 657,865 L 657,861 L 656,860 L 656,856 L 655,855 L 655,851 L 654,850 L 654,846 L 653,845 L 653,838 L 652,837 L 652,832 L 651,831 L 651,825 L 650,824 L 650,814 L 649,813 L 649,799 L 648,798 L 648,765 L 649,764 L 650,765 L 650,773 L 651,774 L 651,780 L 652,781 L 652,790 L 653,791 L 653,796 L 654,797 L 654,801 L 655,802 L 655,808 L 656,809 L 656,813 L 657,814 L 657,818 L 658,819 L 658,822 L 659,823 L 659,828 L 660,829 L 660,832 L 661,833 L 661,836 L 662,837 L 662,840 L 663,841 L 663,844 L 664,845 L 664,847 L 665,848 L 665,851 L 666,852 L 666,855 L 667,856 L 667,858 L 668,859 L 668,861 L 669,862 L 669,865 L 670,866 L 670,868 L 671,869 L 671,871 L 672,872 L 672,874 L 673,875 L 673,877 L 674,878 L 674,879 L 675,880 L 675,882 L 676,883 L 676,885 L 677,886 L 677,888 L 678,889 L 678,890 L 679,891 L 679,893 L 680,894 L 680,895 L 681,896 L 681,898 L 682,899 L 682,900 L 683,901 L 683,903 L 684,904 L 684,905 L 685,906 L 685,907 L 686,908 L 686,909 L 687,910 L 687,912 L 688,913 L 688,914 L 689,915 L 689,916 L 690,917 L 690,918 L 691,919 L 691,920 L 692,921 L 692,922 L 693,923 L 693,924 L 694,925 L 694,926 L 695,927 L 695,928 L 696,929 L 696,930 L 697,931 L 697,932 L 698,933 L 698,934 L 699,935 L 699,936 L 700,937 L 700,938 L 702,940 L 702,941 L 703,942 L 703,943 L 704,944 L 704,945 L 706,947 L 706,948 L 707,949 L 707,950 L 709,952 L 709,953 L 710,954 L 710,955 L 712,957 L 712,958 L 714,960 L 714,961 L 716,963 L 716,964 L 718,966 L 718,967 L 720,969 L 720,970 L 722,972 L 722,973 L 725,976 L 725,977 L 727,979 L 727,980 L 730,983 L 730,984 L 734,988 L 734,989 L 738,993 L 738,994 L 743,999 L 743,1000 L 750,1007 L 750,1008 L 775,1033 L 776,1033 L 783,1040 L 784,1040 L 789,1045 L 790,1045 L 794,1049 L 795,1049 L 798,1052 L 799,1052 L 802,1055 L 803,1055 L 807,1059 L 808,1059 L 810,1061 L 811,1061 L 813,1063 L 814,1063 L 816,1065 L 817,1065 L 819,1067 L 820,1067 L 822,1069 L 823,1069 L 825,1071 L 826,1071 L 828,1073 L 829,1073 L 830,1074 L 831,1074 L 833,1076 L 834,1076 L 835,1077 L 836,1077 L 838,1079 L 839,1079 L 840,1080 L 841,1080 L 842,1081 L 843,1081 L 845,1083 L 846,1083 L 847,1084 L 848,1084 L 849,1085 L 850,1085 L 852,1087 L 854,1087 L 855,1088 L 856,1088 L 858,1090 L 859,1090 L 860,1091 L 862,1091 L 863,1092 L 864,1092 L 866,1094 L 868,1094 L 869,1095 L 870,1095 L 871,1096 L 872,1096 L 873,1097 L 874,1097 L 875,1098 L 877,1098 L 878,1099 L 879,1099 L 880,1100 L 881,1100 L 882,1101 L 884,1101 L 885,1102 L 886,1102 L 887,1103 L 888,1103 L 889,1104 L 890,1104 L 891,1105 L 893,1105 L 894,1106 L 895,1106 L 896,1107 L 898,1107 L 899,1108 L 901,1108 L 902,1109 L 904,1109 L 905,1110 L 906,1110 L 907,1111 L 909,1111 L 910,1112 L 912,1112 L 913,1113 L 915,1113 L 916,1114 L 918,1114 L 919,1115 L 922,1115 L 923,1116 L 925,1116 L 926,1117 L 927,1117 L 928,1118 L 931,1118 L 932,1119 L 935,1119 L 936,1120 L 938,1120 L 939,1121 L 942,1121 L 943,1122 L 946,1122 L 947,1123 L 950,1123 L 951,1124 L 954,1124 L 955,1125 L 959,1125 L 960,1126 L 964,1126 L 965,1127 L 968,1127 L 969,1128 L 973,1128 L 974,1129 L 980,1129 L 981,1130 L 985,1130 L 986,1131 L 991,1131 L 992,1132 L 1000,1132 L 1001,1133 L 1007,1133 L 1008,1134 L 1016,1134 L 1017,1135 L 1031,1135 L 1032,1136 L 1084,1136 L 1085,1135 L 1098,1135 L 1099,1134 L 1106,1134 L 1107,1133 L 1113,1133 L 1114,1132 L 1123,1132 L 1124,1131 L 1129,1131 L 1130,1130 L 1134,1130 L 1135,1129 L 1140,1129 L 1141,1128 L 1145,1128 L 1146,1127 L 1149,1127 L 1150,1126 L 1153,1126 L 1154,1125 L 1158,1125 L 1159,1124 L 1162,1124 L 1163,1123 L 1165,1123 L 1166,1122 L 1170,1122 L 1171,1121 L 1173,1121 L 1174,1120 L 1176,1120 L 1177,1119 L 1180,1119 L 1181,1118 L 1183,1118 L 1184,1117 L 1185,1117 L 1186,1116 L 1188,1116 L 1189,1115 L 1191,1115 L 1192,1114 L 1193,1114 L 1194,1113 L 1195,1113 L 1196,1112 L 1198,1112 L 1199,1111 L 1201,1111 L 1202,1110 L 1203,1110 L 1204,1109 L 1206,1109 L 1207,1108 L 1209,1108 L 1210,1107 L 1212,1107 L 1213,1106 L 1215,1106 L 1216,1105 L 1218,1105 L 1219,1104 L 1221,1104 L 1222,1103 L 1224,1103 L 1225,1102 L 1227,1102 L 1228,1101 L 1231,1101 L 1232,1100 L 1235,1100 L 1236,1099 L 1238,1099 L 1239,1098 L 1243,1098 L 1244,1097 L 1247,1097 L 1248,1096 L 1250,1096 L 1251,1095 L 1255,1095 L 1256,1094 L 1261,1094 L 1262,1093 L 1266,1093 L 1267,1092 L 1271,1092 L 1272,1091 L 1279,1091 L 1280,1090 L 1287,1090 L 1288,1089 L 1295,1089 L 1296,1088 L 1312,1088 L 1313,1087 L 1340,1087 L 1341,1088 L 1358,1088 L 1359,1089 L 1366,1089 L 1367,1090 L 1374,1090 L 1375,1091 L 1382,1091 L 1383,1092 L 1387,1092 L 1388,1093 L 1392,1093 L 1393,1094 L 1398,1094 L 1399,1095 L 1402,1095 L 1403,1096 L 1406,1096 L 1407,1097 L 1410,1097 L 1411,1098 L 1415,1098 L 1416,1099 L 1418,1099 L 1419,1100 L 1422,1100 L 1423,1101 L 1426,1101 L 1427,1102 L 1429,1102 L 1430,1103 L 1432,1103 L 1433,1104 L 1435,1104 L 1436,1105 L 1439,1105 L 1440,1106 L 1441,1106 L 1442,1107 L 1444,1107 L 1445,1108 L 1447,1108 L 1448,1109 L 1450,1109 L 1451,1110 L 1452,1110 L 1453,1111 L 1455,1111 L 1456,1112 L 1458,1112 L 1459,1113 L 1460,1113 L 1461,1114 L 1462,1114 L 1463,1115 L 1465,1115 L 1466,1116 L 1467,1116 L 1468,1117 L 1469,1117 L 1470,1118 L 1472,1118 L 1473,1119 L 1474,1119 L 1475,1120 L 1476,1120 L 1477,1121 L 1478,1121 L 1479,1122 L 1480,1122 L 1481,1123 L 1482,1123 L 1483,1124 L 1484,1124 L 1485,1125 L 1486,1125 L 1487,1126 L 1488,1126 L 1489,1127 L 1490,1127 L 1491,1128 L 1492,1128 L 1493,1129 L 1494,1129 L 1495,1130 L 1496,1130 L 1498,1132 L 1499,1132 L 1500,1133 L 1501,1133 L 1502,1134 L 1503,1134 L 1504,1135 L 1505,1135 L 1507,1137 L 1508,1137 L 1509,1138 L 1510,1138 L 1512,1140 L 1513,1140 L 1515,1142 L 1516,1142 L 1518,1144 L 1519,1144 L 1520,1145 L 1521,1145 L 1523,1147 L 1524,1147 L 1526,1149 L 1527,1149 L 1530,1152 L 1531,1152 L 1533,1154 L 1534,1154 L 1537,1157 L 1538,1157 L 1541,1160 L 1542,1160 L 1545,1163 L 1546,1163 L 1550,1167 L 1551,1167 L 1556,1172 L 1557,1172 L 1560,1175 L 1561,1175 L 1563,1177 L 1564,1177 L 1566,1179 L 1567,1179 L 1568,1180 L 1569,1180 L 1571,1182 L 1572,1182 L 1573,1183 L 1574,1183 L 1576,1185 L 1577,1185 L 1578,1186 L 1579,1186 L 1580,1187 L 1581,1187 L 1582,1188 L 1583,1188 L 1584,1189 L 1585,1189 L 1586,1190 L 1587,1190 L 1588,1191 L 1589,1191 L 1590,1192 L 1591,1192 L 1592,1193 L 1594,1193 L 1595,1194 L 1597,1194 L 1598,1195 L 1599,1195 L 1600,1196 L 1602,1196 L 1603,1197 L 1605,1197 L 1606,1198 L 1608,1198 L 1609,1199 L 1611,1199 L 1612,1200 L 1616,1200 L 1617,1201 L 1620,1201 L 1621,1202 L 1624,1202 L 1625,1203 L 1629,1203 L 1630,1204 L 1637,1204 L 1638,1205 L 1647,1205 L 1648,1206 L 1669,1206 L 1670,1205 L 1678,1205 L 1679,1204 L 1687,1204 L 1688,1203 L 1692,1203 L 1693,1202 L 1696,1202 L 1697,1201 L 1700,1201 L 1701,1200 L 1704,1200 L 1705,1199 L 1708,1199 L 1709,1198 L 1710,1198 L 1711,1197 L 1714,1197 L 1715,1196 L 1717,1196 L 1718,1195 L 1719,1195 L 1720,1194 L 1721,1194 L 1722,1193 L 1724,1193 L 1725,1192 L 1726,1192 L 1727,1191 L 1728,1191 L 1729,1190 L 1731,1190 L 1732,1189 L 1733,1189 L 1734,1188 L 1735,1188 L 1736,1187 L 1737,1187 L 1738,1186 L 1739,1186 L 1740,1185 L 1741,1185 L 1743,1183 L 1744,1183 L 1745,1182 L 1746,1182 L 1747,1181 L 1748,1181 L 1750,1179 L 1751,1179 L 1753,1177 L 1754,1177 L 1757,1174 L 1758,1174 L 1761,1171 L 1762,1171 L 1765,1168 L 1766,1168 L 1773,1161 L 1774,1161 L 1774,1160 L 1775,1159 L 1776,1159 L 1777,1158 L 1777,1157 L 1778,1156 L 1779,1156 L 1781,1154 L 1781,1153 L 1789,1145 L 1789,1144 L 1793,1140 L 1793,1139 L 1796,1136 L 1796,1135 L 1798,1133 L 1798,1132 L 1800,1130 L 1800,1129 L 1802,1127 L 1802,1126 L 1803,1125 L 1803,1124 L 1805,1122 L 1805,1121 L 1806,1120 L 1806,1119 L 1808,1117 L 1808,1115 L 1810,1113 L 1810,1112 L 1811,1111 L 1811,1110 L 1812,1109 L 1812,1107 L 1813,1106 L 1813,1105 L 1814,1104 L 1814,1103 L 1815,1102 L 1815,1100 L 1816,1099 L 1816,1098 L 1817,1097 L 1817,1095 L 1818,1094 L 1818,1093 L 1819,1092 L 1819,1089 L 1820,1088 L 1820,1086 L 1821,1085 L 1821,1083 L 1822,1082 L 1822,1079 L 1823,1078 L 1823,1075 L 1824,1074 L 1824,1071 L 1825,1070 L 1825,1066 L 1826,1065 L 1826,1057 L 1827,1056 L 1827,1048 L 1828,1047 L 1828,1024 L 1827,1023 L 1827,1015 L 1826,1014 L 1826,1006 L 1825,1005 L 1825,1001 L 1824,1000 L 1824,997 L 1823,996 L 1823,991 L 1822,990 L 1822,987 L 1821,986 L 1821,985 L 1820,984 L 1820,982 L 1819,981 L 1819,979 L 1818,978 L 1818,976 L 1817,975 L 1817,974 L 1816,973 L 1816,972 L 1815,971 L 1815,969 L 1814,968 L 1814,967 L 1813,966 L 1813,965 L 1812,964 L 1812,963 L 1811,962 L 1811,961 L 1810,960 L 1810,959 L 1809,958 L 1809,957 L 1808,956 L 1808,955 L 1806,953 L 1806,952 L 1805,951 L 1805,950 L 1803,948 L 1803,947 L 1801,945 L 1801,944 L 1800,943 L 1800,942 L 1797,939 L 1797,938 L 1795,936 L 1795,932 L 1794,931 L 1794,927 L 1793,926 L 1793,923 L 1792,922 L 1792,918 L 1791,917 L 1791,913 L 1790,912 L 1790,909 L 1789,908 L 1789,906 L 1788,905 L 1788,901 L 1787,900 L 1787,897 L 1786,896 L 1786,894 L 1785,893 L 1785,890 L 1784,889 L 1784,887 L 1783,886 L 1783,884 L 1782,883 L 1782,881 L 1781,880 L 1781,877 L 1780,876 L 1780,874 L 1779,873 L 1779,872 L 1778,871 L 1778,869 L 1777,868 L 1777,866 L 1776,865 L 1776,864 L 1775,863 L 1775,861 L 1774,860 L 1774,859 L 1773,858 L 1773,857 L 1772,856 L 1772,855 L 1771,854 L 1771,852 L 1770,851 L 1770,850 L 1769,849 L 1769,848 L 1768,847 L 1768,846 L 1767,845 L 1767,844 L 1766,843 L 1766,842 L 1765,841 L 1765,840 L 1764,839 L 1764,838 L 1763,837 L 1763,836 L 1761,834 L 1761,833 L 1760,832 L 1760,831 L 1758,829 L 1758,828 L 1757,827 L 1757,826 L 1755,824 L 1755,823 L 1754,822 L 1754,821 L 1752,819 L 1752,818 L 1750,816 L 1750,815 L 1748,813 L 1748,812 L 1746,810 L 1746,809 L 1745,808 L 1744,808 L 1743,807 L 1742,807 L 1741,808 L 1740,808 L 1738,810 L 1738,811 L 1737,812 L 1737,826 L 1736,827 L 1736,839 L 1735,840 L 1735,846 L 1734,847 L 1734,851 L 1733,852 L 1733,857 L 1732,858 L 1732,862 L 1731,863 L 1731,867 L 1730,868 L 1730,872 L 1729,873 L 1729,878 L 1728,879 L 1728,883 L 1727,884 L 1727,888 L 1726,889 L 1726,893 L 1725,894 L 1725,898 L 1724,899 L 1724,902 L 1723,903 L 1723,906 L 1722,907 L 1722,912 L 1721,913 L 1721,916 L 1720,917 L 1720,925 L 1721,926 L 1721,928 L 1722,929 L 1722,930 L 1723,931 L 1723,932 L 1726,935 L 1727,935 L 1729,937 L 1731,937 L 1732,938 L 1733,938 L 1734,939 L 1737,939 L 1738,940 L 1742,940 L 1743,941 L 1752,941 L 1753,942 L 1751,944 L 1750,944 L 1749,945 L 1748,945 L 1747,946 L 1741,946 L 1740,947 L 1727,947 L 1726,946 L 1720,946 L 1719,945 L 1717,945 L 1716,944 L 1715,944 L 1713,942 L 1713,932 L 1712,931 L 1712,923 L 1711,922 L 1711,916 L 1710,915 L 1710,909 L 1709,908 L 1709,903 L 1708,902 L 1708,898 L 1707,897 L 1707,894 L 1706,893 L 1706,889 L 1705,888 L 1705,885 L 1704,884 L 1704,882 L 1703,881 L 1703,878 L 1702,877 L 1702,875 L 1701,874 L 1701,872 L 1700,871 L 1700,870 L 1699,869 L 1699,867 L 1698,866 L 1698,864 L 1697,863 L 1697,862 L 1696,861 L 1696,859 L 1695,858 L 1695,857 L 1694,856 L 1694,855 L 1693,854 L 1693,853 L 1692,852 L 1692,851 L 1691,850 L 1691,849 L 1690,848 L 1690,847 L 1689,846 L 1689,845 L 1688,844 L 1688,843 L 1686,841 L 1686,840 L 1685,839 L 1685,838 L 1683,836 L 1683,835 L 1681,833 L 1681,832 L 1679,830 L 1679,829 L 1676,826 L 1676,825 L 1671,820 L 1671,819 L 1661,809 L 1660,809 L 1657,806 L 1652,806 L 1650,808 L 1650,809 L 1649,810 L 1649,811 L 1648,812 L 1648,819 L 1647,820 L 1647,830 L 1646,831 L 1646,836 L 1645,837 L 1645,843 L 1644,844 L 1644,849 L 1643,850 L 1643,856 L 1642,857 L 1642,861 L 1641,862 L 1641,866 L 1640,867 L 1640,873 L 1639,874 L 1639,877 L 1638,878 L 1638,881 L 1637,882 L 1637,886 L 1636,887 L 1636,891 L 1635,892 L 1635,895 L 1634,896 L 1634,898 L 1633,899 L 1633,903 L 1632,904 L 1632,906 L 1631,907 L 1631,910 L 1630,911 L 1630,914 L 1629,915 L 1629,917 L 1628,918 L 1628,920 L 1627,921 L 1627,923 L 1626,924 L 1626,927 L 1625,928 L 1625,929 L 1624,930 L 1624,932 L 1623,933 L 1623,935 L 1622,936 L 1622,938 L 1621,939 L 1621,940 L 1620,941 L 1620,943 L 1619,944 L 1619,945 L 1618,946 L 1618,947 L 1617,948 L 1617,949 L 1615,951 L 1614,951 L 1613,950 L 1608,950 L 1607,949 L 1603,949 L 1602,948 L 1600,948 L 1599,947 L 1596,947 L 1595,946 L 1591,946 L 1590,945 L 1588,945 L 1587,944 L 1584,944 L 1583,943 L 1579,943 L 1578,942 L 1576,942 L 1575,941 L 1573,941 L 1572,940 L 1568,940 L 1567,939 L 1565,939 L 1564,938 L 1561,938 L 1560,937 L 1558,937 L 1557,936 L 1554,936 L 1553,935 L 1551,935 L 1550,934 L 1547,934 L 1546,933 L 1543,933 L 1542,932 L 1539,932 L 1538,931 L 1536,931 L 1535,930 L 1532,930 L 1531,929 L 1528,929 L 1527,928 L 1524,928 L 1523,927 L 1521,927 L 1520,926 L 1516,926 L 1515,925 L 1512,925 L 1511,924 L 1509,924 L 1508,923 L 1505,923 L 1504,922 L 1500,922 L 1499,921 L 1496,921 L 1495,920 L 1492,920 L 1491,919 L 1486,919 L 1485,918 L 1481,918 L 1480,917 L 1477,917 L 1476,916 L 1471,916 L 1470,915 L 1464,915 L 1463,914 L 1459,914 L 1458,913 L 1452,913 L 1451,912 L 1442,912 L 1441,911 L 1434,911 L 1433,910 L 1426,910 L 1425,909 L 1416,909 L 1415,908 L 1409,908 L 1408,907 L 1403,907 L 1402,906 L 1395,906 L 1394,905 L 1387,905 L 1386,904 L 1382,904 L 1381,903 L 1376,903 L 1375,902 L 1369,902 L 1368,901 L 1365,901 L 1364,900 L 1360,900 L 1359,899 L 1355,899 L 1354,898 L 1351,898 L 1350,897 L 1347,897 L 1346,896 L 1343,896 L 1342,895 L 1339,895 L 1338,894 L 1336,894 L 1335,893 L 1333,893 L 1332,892 L 1330,892 L 1329,891 L 1327,891 L 1326,890 L 1324,890 L 1323,889 L 1322,889 L 1321,888 L 1319,888 L 1318,887 L 1317,887 L 1316,886 L 1315,886 L 1314,885 L 1312,885 L 1311,884 L 1310,884 L 1308,882 L 1307,882 L 1306,881 L 1305,881 L 1304,880 L 1303,880 L 1301,878 L 1300,878 L 1298,876 L 1297,876 L 1294,873 L 1293,873 L 1284,864 L 1284,863 L 1281,860 L 1281,859 L 1279,857 L 1279,856 L 1278,855 L 1278,854 L 1276,852 L 1276,851 L 1275,850 L 1275,848 L 1274,847 L 1274,846 L 1273,845 L 1273,843 L 1272,842 L 1272,839 L 1271,838 L 1271,835 L 1270,834 L 1270,830 L 1269,829 L 1269,823 L 1270,822 L 1271,822 L 1272,823 L 1272,824 L 1274,826 L 1274,827 L 1275,828 L 1275,829 L 1276,830 L 1276,831 L 1277,832 L 1277,833 L 1278,834 L 1278,835 L 1280,837 L 1280,838 L 1281,839 L 1281,840 L 1282,841 L 1282,842 L 1285,845 L 1285,846 L 1287,848 L 1287,849 L 1291,853 L 1291,854 L 1299,862 L 1300,862 L 1304,866 L 1305,866 L 1308,869 L 1309,869 L 1311,871 L 1312,871 L 1313,872 L 1314,872 L 1316,874 L 1317,874 L 1318,875 L 1319,875 L 1320,876 L 1321,876 L 1322,877 L 1323,877 L 1324,878 L 1325,878 L 1326,879 L 1327,879 L 1328,880 L 1329,880 L 1330,881 L 1332,881 L 1333,882 L 1335,882 L 1336,883 L 1337,883 L 1338,884 L 1340,884 L 1341,885 L 1342,885 L 1343,886 L 1346,886 L 1347,887 L 1349,887 L 1350,888 L 1352,888 L 1353,889 L 1356,889 L 1357,890 L 1360,890 L 1361,891 L 1363,891 L 1364,892 L 1368,892 L 1369,893 L 1373,893 L 1374,894 L 1377,894 L 1378,895 L 1382,895 L 1383,896 L 1389,896 L 1390,897 L 1394,897 L 1395,898 L 1399,898 L 1400,897 L 1400,896 L 1401,895 L 1401,894 L 1400,893 L 1400,892 L 1399,892 L 1397,890 L 1396,890 L 1394,888 L 1393,888 L 1392,887 L 1391,887 L 1389,885 L 1388,885 L 1387,884 L 1386,884 L 1384,882 L 1383,882 L 1380,879 L 1379,879 L 1378,878 L 1377,878 L 1374,875 L 1373,875 L 1370,872 L 1369,872 L 1363,866 L 1362,866 L 1353,857 L 1353,856 L 1348,851 L 1348,850 L 1346,848 L 1346,847 L 1344,845 L 1344,844 L 1343,843 L 1343,842 L 1341,840 L 1341,838 L 1340,837 L 1340,836 L 1339,835 L 1339,834 L 1338,833 L 1338,831 L 1337,830 L 1337,827 L 1336,826 L 1336,823 L 1335,822 L 1335,818 L 1334,817 L 1334,781 L 1335,780 L 1335,770 L 1336,769 L 1336,764 L 1337,763 L 1337,759 L 1338,758 L 1338,755 L 1339,754 L 1339,751 L 1340,750 L 1340,746 L 1341,745 L 1341,743 L 1342,742 L 1342,740 L 1343,739 L 1343,737 L 1344,736 L 1344,734 L 1345,733 L 1345,731 L 1346,730 L 1346,728 L 1347,727 L 1347,725 L 1348,724 L 1348,723 L 1349,722 L 1349,721 L 1350,720 L 1350,718 L 1351,717 L 1351,716 L 1352,715 L 1352,714 L 1353,713 L 1353,712 L 1354,711 L 1354,709 L 1356,707 L 1356,706 L 1357,705 L 1357,703 L 1359,701 L 1359,700 L 1360,699 L 1360,698 L 1361,697 L 1361,696 L 1363,694 L 1363,693 L 1364,692 L 1364,691 L 1366,689 L 1366,688 L 1367,687 L 1367,686 L 1369,684 L 1369,683 L 1371,681 L 1371,680 L 1373,678 L 1373,677 L 1376,674 L 1376,673 L 1379,670 L 1379,669 L 1382,666 L 1382,665 L 1386,661 L 1386,660 L 1393,653 L 1393,652 L 1417,628 L 1418,628 L 1418,627 L 1419,626 L 1420,626 L 1425,621 L 1426,621 L 1430,617 L 1431,617 L 1436,612 L 1437,612 L 1440,609 L 1441,609 L 1444,606 L 1445,606 L 1447,604 L 1448,604 L 1450,602 L 1451,602 L 1454,599 L 1455,599 L 1457,597 L 1458,597 L 1460,595 L 1461,595 L 1462,594 L 1463,594 L 1465,592 L 1466,592 L 1467,591 L 1468,591 L 1472,587 L 1472,585 L 1471,584 L 1471,583 L 1462,583 L 1461,584 L 1453,584 L 1452,585 L 1448,585 L 1447,586 L 1444,586 L 1443,587 L 1438,587 L 1437,588 L 1434,588 L 1433,589 L 1430,589 L 1429,590 L 1427,590 L 1426,591 L 1423,591 L 1422,592 L 1419,592 L 1418,593 L 1417,593 L 1416,594 L 1413,594 L 1412,595 L 1410,595 L 1409,596 L 1408,596 L 1407,597 L 1405,597 L 1404,598 L 1402,598 L 1401,599 L 1399,599 L 1398,600 L 1397,600 L 1396,601 L 1394,601 L 1393,602 L 1392,602 L 1391,603 L 1390,603 L 1389,604 L 1388,604 L 1387,605 L 1385,605 L 1384,606 L 1383,606 L 1382,607 L 1381,607 L 1380,608 L 1379,608 L 1378,609 L 1377,609 L 1376,610 L 1375,610 L 1373,612 L 1372,612 L 1371,613 L 1370,613 L 1369,614 L 1368,614 L 1367,615 L 1366,615 L 1364,617 L 1363,617 L 1361,619 L 1360,619 L 1359,620 L 1358,620 L 1356,622 L 1355,622 L 1353,624 L 1352,624 L 1349,627 L 1348,627 L 1346,629 L 1345,629 L 1342,632 L 1341,632 L 1336,637 L 1335,637 L 1329,643 L 1328,643 L 1310,661 L 1310,662 L 1305,667 L 1305,668 L 1301,672 L 1301,673 L 1297,677 L 1297,678 L 1294,681 L 1294,682 L 1292,684 L 1292,685 L 1291,686 L 1290,685 L 1290,683 L 1291,682 L 1291,681 L 1292,680 L 1292,679 L 1293,678 L 1293,677 L 1294,676 L 1294,675 L 1295,674 L 1295,673 L 1296,672 L 1296,670 L 1298,668 L 1298,667 L 1299,666 L 1299,665 L 1300,664 L 1300,663 L 1301,662 L 1301,661 L 1303,659 L 1303,658 L 1304,657 L 1304,656 L 1306,654 L 1306,653 L 1308,651 L 1308,650 L 1310,648 L 1310,647 L 1312,645 L 1312,644 L 1315,641 L 1315,640 L 1318,637 L 1318,636 L 1321,633 L 1321,632 L 1328,625 L 1328,624 L 1344,608 L 1345,608 L 1351,602 L 1352,602 L 1356,598 L 1357,598 L 1359,596 L 1360,596 L 1362,594 L 1363,594 L 1366,591 L 1367,591 L 1368,590 L 1369,590 L 1371,588 L 1372,588 L 1374,586 L 1375,586 L 1376,585 L 1377,585 L 1378,584 L 1379,584 L 1381,582 L 1382,582 L 1383,581 L 1384,581 L 1385,580 L 1386,580 L 1387,579 L 1388,579 L 1389,578 L 1391,578 L 1392,577 L 1393,577 L 1394,576 L 1395,576 L 1396,575 L 1397,575 L 1398,574 L 1400,574 L 1401,573 L 1402,573 L 1403,572 L 1404,572 L 1405,571 L 1407,571 L 1408,570 L 1410,570 L 1411,569 L 1413,569 L 1414,568 L 1416,568 L 1417,567 L 1419,567 L 1420,566 L 1422,566 L 1423,565 L 1426,565 L 1427,564 L 1430,564 L 1431,563 L 1434,563 L 1435,562 L 1437,562 L 1438,561 L 1443,561 L 1444,560 L 1448,560 L 1449,559 L 1452,559 L 1453,558 L 1460,558 L 1461,557 L 1468,557 L 1469,556 L 1477,556 L 1478,555 L 1487,555 L 1488,554 L 1537,554 L 1538,555 L 1549,555 L 1550,556 L 1559,556 L 1560,557 L 1571,557 L 1572,558 L 1580,558 L 1581,559 L 1587,559 L 1588,560 L 1594,560 L 1595,561 L 1603,561 L 1604,562 L 1609,562 L 1610,563 L 1615,563 L 1616,564 L 1623,564 L 1624,565 L 1628,565 L 1629,566 L 1633,566 L 1634,567 L 1639,567 L 1640,568 L 1647,568 L 1648,569 L 1651,569 L 1652,570 L 1656,570 L 1657,571 L 1657,572 L 1658,573 L 1658,578 L 1659,579 L 1659,585 L 1660,586 L 1660,598 L 1661,599 L 1661,641 L 1660,642 L 1660,657 L 1659,658 L 1659,665 L 1658,666 L 1658,674 L 1657,675 L 1657,683 L 1656,684 L 1656,689 L 1655,690 L 1655,700 L 1656,701 L 1656,702 L 1658,704 L 1660,704 L 1661,705 L 1664,705 L 1665,704 L 1666,704 L 1667,703 L 1669,703 L 1670,702 L 1671,702 L 1672,701 L 1673,701 L 1674,700 L 1675,700 L 1676,699 L 1677,699 L 1678,698 L 1679,698 L 1680,697 L 1681,697 L 1682,696 L 1683,696 L 1684,695 L 1685,695 L 1686,694 L 1687,694 L 1689,692 L 1690,692 L 1692,690 L 1693,690 L 1695,688 L 1696,688 L 1698,686 L 1699,686 L 1702,683 L 1703,683 L 1706,680 L 1707,680 L 1714,673 L 1715,673 L 1716,672 L 1716,671 L 1717,670 L 1718,670 L 1719,669 L 1719,668 L 1721,666 L 1722,666 L 1722,665 L 1729,658 L 1729,657 L 1733,653 L 1733,652 L 1736,649 L 1736,648 L 1739,645 L 1739,644 L 1740,643 L 1740,642 L 1743,639 L 1743,638 L 1744,637 L 1744,636 L 1746,634 L 1746,633 L 1747,632 L 1747,631 L 1748,630 L 1748,629 L 1750,627 L 1750,626 L 1751,625 L 1751,624 L 1752,623 L 1752,622 L 1753,621 L 1753,620 L 1754,619 L 1754,618 L 1755,617 L 1755,616 L 1756,615 L 1756,614 L 1757,613 L 1757,611 L 1758,610 L 1758,609 L 1759,608 L 1759,607 L 1760,606 L 1760,605 L 1761,604 L 1761,602 L 1762,601 L 1762,600 L 1763,599 L 1763,597 L 1764,596 L 1764,594 L 1765,593 L 1765,592 L 1766,591 L 1766,589 L 1767,588 L 1767,586 L 1768,585 L 1770,585 L 1771,586 L 1775,586 L 1776,587 L 1781,587 L 1782,588 L 1792,588 L 1793,589 L 1803,589 L 1804,590 L 1808,590 L 1809,591 L 1808,592 L 1791,592 L 1790,593 L 1789,592 L 1784,592 L 1784,598 L 1785,599 L 1785,603 L 1786,604 L 1786,608 L 1787,609 L 1787,625 L 1788,626 L 1788,645 L 1787,646 L 1787,666 L 1786,667 L 1786,674 L 1785,675 L 1785,681 L 1784,682 L 1784,691 L 1786,693 L 1787,693 L 1788,694 L 1789,694 L 1790,693 L 1791,693 L 1792,692 L 1793,692 L 1794,691 L 1796,691 L 1797,690 L 1798,690 L 1799,689 L 1800,689 L 1802,687 L 1803,687 L 1804,686 L 1805,686 L 1807,684 L 1808,684 L 1810,682 L 1811,682 L 1813,680 L 1814,680 L 1819,675 L 1820,675 L 1830,665 L 1830,664 L 1835,659 L 1835,658 L 1838,655 L 1838,654 L 1840,652 L 1840,651 L 1842,649 L 1842,648 L 1843,647 L 1843,646 L 1845,644 L 1845,643 L 1846,642 L 1846,641 L 1847,640 L 1847,639 L 1848,638 L 1848,637 L 1849,636 L 1849,635 L 1850,634 L 1850,633 L 1851,632 L 1851,631 L 1852,630 L 1852,629 L 1853,628 L 1853,626 L 1854,625 L 1854,624 L 1855,623 L 1855,622 L 1856,621 L 1856,619 L 1857,618 L 1857,616 L 1858,615 L 1858,613 L 1859,612 L 1859,610 L 1860,609 L 1860,607 L 1861,606 L 1861,604 L 1862,603 L 1862,600 L 1863,599 L 1863,596 L 1864,595 L 1864,593 L 1865,592 L 1865,589 L 1866,588 L 1866,586 L 1867,585 L 1867,582 L 1869,580 L 1870,580 L 1872,578 L 1874,578 L 1876,576 L 1876,575 L 1879,572 L 1879,571 L 1881,569 L 1881,568 L 1883,566 L 1883,565 L 1885,563 L 1885,562 L 1887,560 L 1887,559 L 1889,557 L 1889,556 L 1891,554 L 1891,553 L 1893,551 L 1893,550 L 1894,549 L 1894,548 L 1896,546 L 1896,545 L 1897,544 L 1897,543 L 1898,542 L 1898,541 L 1900,539 L 1900,538 L 1901,537 L 1901,536 L 1902,535 L 1902,534 L 1903,533 L 1903,532 L 1904,531 L 1904,529 L 1905,528 L 1905,527 L 1906,526 L 1906,525 L 1907,524 L 1907,522 L 1908,521 L 1908,520 L 1909,519 L 1909,517 L 1910,516 L 1910,515 L 1911,514 L 1911,512 L 1912,511 L 1912,509 L 1913,508 L 1913,506 L 1914,505 L 1914,503 L 1915,502 L 1915,500 L 1916,499 L 1916,497 L 1917,496 L 1917,494 L 1918,493 L 1918,490 L 1919,489 L 1919,487 L 1920,486 L 1920,483 L 1921,482 L 1921,479 L 1922,478 L 1922,475 L 1923,474 L 1923,471 L 1924,470 L 1924,467 L 1925,466 L 1925,461 L 1926,460 L 1926,457 L 1927,456 L 1927,452 L 1928,451 L 1928,445 L 1929,444 L 1929,440 L 1930,439 L 1930,434 L 1931,433 L 1931,427 L 1932,426 L 1932,407 L 1931,406 L 1931,401 L 1930,400 L 1930,398 L 1929,397 L 1929,394 L 1928,393 L 1928,391 L 1927,390 L 1927,389 L 1926,388 L 1926,387 L 1925,386 L 1925,384 L 1924,383 L 1924,382 L 1922,380 L 1922,379 L 1921,378 L 1921,377 L 1919,375 L 1919,374 L 1916,371 L 1916,370 L 1905,359 L 1904,359 L 1901,356 L 1900,356 L 1898,354 L 1897,354 L 1895,352 L 1894,352 L 1893,351 L 1892,351 L 1890,349 L 1889,349 L 1886,346 L 1885,346 L 1883,344 L 1882,344 L 1880,342 L 1879,342 L 1875,338 L 1874,338 L 1871,335 L 1870,335 L 1865,330 L 1864,330 L 1855,321 L 1854,321 L 1842,309 L 1842,308 L 1841,308 L 1840,307 L 1840,306 L 1834,300 L 1834,299 L 1830,295 L 1830,294 L 1827,291 L 1827,290 L 1824,287 L 1824,286 L 1823,285 L 1823,283 L 1826,280 L 1829,280 L 1830,281 L 1831,281 L 1832,282 L 1833,282 L 1835,284 L 1836,284 L 1837,285 L 1838,285 L 1840,287 L 1841,287 L 1842,288 L 1843,288 L 1845,290 L 1846,290 L 1847,291 L 1848,291 L 1850,293 L 1851,293 L 1852,294 L 1853,294 L 1854,295 L 1855,295 L 1857,297 L 1858,297 L 1859,298 L 1860,298 L 1861,299 L 1862,299 L 1864,301 L 1865,301 L 1866,302 L 1867,302 L 1869,304 L 1870,304 L 1871,305 L 1872,305 L 1873,306 L 1874,306 L 1875,307 L 1876,307 L 1878,309 L 1879,309 L 1880,310 L 1881,310 L 1882,311 L 1883,311 L 1884,312 L 1885,312 L 1887,314 L 1888,314 L 1889,315 L 1890,315 L 1891,316 L 1892,316 L 1893,317 L 1894,317 L 1895,318 L 1896,318 L 1898,320 L 1899,320 L 1900,321 L 1902,321 L 1904,323 L 1905,323 L 1906,324 L 1907,324 L 1908,325 L 1910,325 L 1912,327 L 1913,327 L 1914,328 L 1916,328 L 1917,329 L 1918,329 L 1919,330 L 1920,330 L 1921,331 L 1922,331 L 1923,332 L 1925,332 L 1926,333 L 1927,333 L 1928,334 L 1932,334 L 1933,333 L 1933,322 L 1932,321 L 1932,314 L 1931,313 L 1931,309 L 1930,308 L 1930,306 L 1929,305 L 1929,304 L 1928,303 L 1928,301 L 1927,300 L 1927,299 L 1924,296 L 1924,295 L 1912,283 L 1911,283 L 1905,277 L 1904,277 L 1901,274 L 1900,274 L 1896,270 L 1895,270 L 1892,267 L 1891,267 L 1889,265 L 1888,265 L 1886,263 L 1885,263 L 1882,260 L 1881,260 L 1879,258 L 1878,258 L 1876,256 L 1875,256 L 1873,254 L 1872,254 L 1870,252 L 1869,252 L 1867,250 L 1866,250 L 1865,249 L 1864,249 L 1862,247 L 1861,247 L 1859,245 L 1858,245 L 1857,244 L 1856,244 L 1854,242 L 1853,242 L 1852,241 L 1851,241 L 1849,239 L 1848,239 L 1847,238 L 1846,238 L 1844,236 L 1843,236 L 1842,235 L 1841,235 L 1840,234 L 1839,234 L 1837,232 L 1836,232 L 1835,231 L 1834,231 L 1833,230 L 1832,230 L 1831,229 L 1830,229 L 1829,228 L 1828,228 L 1827,227 L 1826,227 L 1824,225 L 1823,225 L 1822,224 L 1821,224 L 1820,223 L 1819,223 L 1818,222 L 1817,222 L 1816,221 L 1815,221 L 1814,220 L 1813,220 L 1812,219 L 1811,219 L 1810,218 L 1809,218 L 1808,217 L 1807,217 L 1806,216 L 1805,216 L 1804,215 L 1803,215 L 1802,214 L 1801,214 L 1800,213 L 1799,213 L 1798,212 L 1797,212 L 1796,211 L 1794,211 L 1793,210 L 1792,210 L 1791,209 L 1790,209 L 1789,208 L 1788,208 L 1787,207 L 1786,207 L 1785,206 L 1784,206 L 1783,205 L 1781,205 L 1780,204 L 1779,204 L 1778,203 L 1777,203 L 1776,202 L 1775,202 L 1774,201 L 1772,201 L 1771,200 L 1770,200 L 1769,199 L 1767,199 L 1766,198 L 1765,198 L 1764,197 L 1762,197 L 1761,196 L 1760,196 L 1759,195 L 1758,195 L 1757,194 L 1755,194 L 1754,193 L 1752,193 L 1751,192 L 1750,192 L 1749,191 L 1747,191 L 1746,190 L 1744,190 L 1743,189 L 1742,189 L 1741,188 L 1739,188 L 1738,187 L 1736,187 L 1735,186 L 1733,186 L 1732,185 L 1731,185 L 1730,184 L 1727,184 L 1726,183 L 1724,183 L 1723,182 L 1722,182 L 1721,181 L 1718,181 L 1717,180 L 1715,180 L 1714,179 L 1712,179 L 1711,178 L 1709,178 L 1708,177 L 1704,177 L 1703,176 L 1701,176 L 1700,175 L 1698,175 L 1697,174 L 1694,174 L 1693,173 L 1690,173 L 1689,172 L 1686,172 L 1685,171 L 1683,171 L 1682,170 L 1677,170 L 1676,169 L 1673,169 L 1672,168 L 1669,168 L 1668,167 L 1664,167 L 1663,166 L 1658,166 L 1657,165 L 1653,165 L 1652,164 L 1647,164 L 1646,163 L 1639,163 L 1638,162 L 1633,162 L 1632,161 L 1624,161 L 1623,160 L 1607,160 L 1606,159 L 1604,159 L 1603,160 L 1602,159 L 1559,159 L 1558,158 L 1549,158 L 1548,157 L 1540,157 L 1539,156 L 1531,156 L 1530,155 L 1526,155 L 1525,154 L 1521,154 L 1520,153 L 1514,153 L 1513,152 L 1510,152 L 1509,151 L 1505,151 L 1504,150 L 1500,150 L 1499,149 L 1496,149 L 1495,148 L 1492,148 L 1491,147 L 1488,147 L 1487,146 L 1483,146 L 1482,145 L 1480,145 L 1479,144 L 1476,144 L 1475,143 L 1472,143 L 1471,142 L 1469,142 L 1468,141 L 1465,141 L 1464,140 L 1462,140 L 1461,139 L 1458,139 L 1457,138 L 1455,138 L 1454,137 L 1452,137 L 1451,136 L 1448,136 L 1447,135 L 1445,135 L 1444,134 L 1442,134 L 1441,133 L 1439,133 L 1438,132 L 1435,132 L 1434,131 L 1432,131 L 1431,130 L 1430,130 L 1429,129 L 1426,129 L 1425,128 L 1423,128 L 1422,127 L 1420,127 L 1419,126 L 1417,126 L 1416,125 L 1414,125 L 1413,124 L 1411,124 L 1410,123 L 1408,123 L 1407,122 L 1405,122 L 1404,121 L 1402,121 L 1401,120 L 1399,120 L 1398,119 L 1396,119 L 1395,118 L 1393,118 L 1392,117 L 1390,117 L 1389,116 L 1387,116 L 1386,115 L 1384,115 L 1383,114 L 1381,114 L 1380,113 L 1379,113 L 1378,112 L 1375,112 L 1374,111 L 1372,111 L 1371,110 L 1370,110 L 1369,109 L 1366,109 L 1365,108 L 1363,108 L 1362,107 L 1360,107 L 1359,106 L 1357,106 L 1356,105 L 1353,105 L 1352,104 L 1350,104 L 1349,103 L 1348,103 L 1347,102 L 1344,102 L 1343,101 L 1340,101 L 1339,100 L 1337,100 L 1336,99 L 1334,99 L 1333,98 L 1330,98 L 1329,97 L 1326,97 L 1325,96 L 1323,96 L 1322,95 L 1318,95 L 1317,94 L 1315,94 L 1314,93 L 1311,93 L 1310,92 L 1306,92 L 1305,91 L 1301,91 L 1300,90 L 1297,90 L 1296,89 L 1292,89 L 1291,88 L 1284,88 L 1283,87 L 1279,87 L 1278,86 L 1273,86 L 1272,85 L 1264,85 L 1263,84 L 1252,84 L 1251,83 L 1207,83 L 1206,84 L 1188,84 L 1187,85 L 1175,85 L 1174,86 L 1166,86 L 1165,87 L 1159,87 L 1158,88 L 1149,88 L 1148,89 L 1143,89 L 1142,90 L 1137,90 L 1136,91 L 1130,91 L 1129,92 L 1124,92 L 1123,93 L 1120,93 L 1119,94 L 1115,94 L 1114,95 L 1109,95 L 1108,96 L 1105,96 L 1104,97 L 1101,97 L 1100,98 L 1096,98 L 1095,99 L 1092,99 L 1091,100 L 1089,100 L 1088,101 L 1085,101 L 1084,102 L 1080,102 L 1079,103 L 1077,103 L 1076,104 L 1074,104 L 1073,105 L 1069,105 L 1068,106 L 1066,106 L 1065,107 L 1063,107 L 1062,108 L 1059,108 L 1058,109 L 1055,109 L 1054,110 L 1052,110 L 1051,111 L 1049,111 L 1048,112 L 1045,112 L 1044,113 L 1041,113 L 1040,114 L 1039,114 L 1038,115 L 1034,115 L 1033,116 L 1031,116 L 1030,117 L 1028,117 L 1027,118 L 1024,118 L 1023,119 L 1020,119 L 1019,120 L 1017,120 L 1016,121 L 1013,121 L 1012,122 L 1008,122 L 1007,123 L 1004,123 L 1003,124 L 1001,124 L 1000,125 L 996,125 L 995,126 L 992,126 L 991,127 L 988,127 L 987,128 L 984,128 L 983,129 L 978,129 L 977,130 L 973,130 L 972,131 L 969,131 L 968,132 L 963,132 L 962,133 L 958,133 L 957,134 L 953,134 L 952,135 L 948,135 L 947,136 L 940,136 L 939,137 L 934,137 L 933,138 L 928,138 L 927,139 L 918,139 L 917,140 L 910,140 L 909,141 L 901,141 L 900,142 L 889,142 L 888,143 L 870,143 L 869,144 L 868,143 L 866,143 L 865,144 L 822,144 L 821,143 L 820,143 L 819,144 L 818,143 L 799,143 L 798,142 L 786,142 L 785,141 L 776,141 L 775,140 L 767,140 L 766,139 L 756,139 L 755,138 L 750,138 L 749,137 L 743,137 L 742,136 L 734,136 L 733,135 L 728,135 L 727,134 L 723,134 L 722,133 L 717,133 L 716,132 L 710,132 L 709,131 L 705,131 L 704,130 L 700,130 L 699,129 L 693,129 L 692,128 L 688,128 L 687,127 L 684,127 L 683,126 L 679,126 L 678,125 L 673,125 L 672,124 L 669,124 L 668,123 L 665,123 L 664,122 L 659,122 L 658,121 L 655,121 L 654,120 L 651,120 L 650,119 L 646,119 L 645,118 L 642,118 L 641,117 L 638,117 L 637,116 L 634,116 L 633,115 L 629,115 L 628,114 L 625,114 L 624,113 L 622,113 L 621,112 L 616,112 L 615,111 L 613,111 L 612,110 L 610,110 L 609,109 L 605,109 L 604,108 L 601,108 L 600,107 L 598,107 L 597,106 L 594,106 L 593,105 L 590,105 L 589,104 L 587,104 L 586,103 L 583,103 L 582,102 L 579,102 L 578,101 L 575,101 L 574,100 L 572,100 L 571,99 L 569,99 L 568,98 L 564,98 L 563,97 L 561,97 L 560,96 L 558,96 L 557,95 L 554,95 L 553,94 L 551,94 L 550,93 L 548,93 L 547,92 L 544,92 L 543,91 L 540,91 L 539,90 L 537,90 L 536,89 L 534,89 L 533,88 L 530,88 L 529,87 L 527,87 L 526,86 L 524,86 L 523,85 L 521,85 L 520,84 L 517,84 L 516,83 L 514,83 L 513,82 L 511,82 L 510,81 L 507,81 L 506,80 L 504,80 L 503,79 L 502,79 L 501,78 L 498,78 L 497,77 L 495,77 L 494,76 L 492,76 L 491,75 L 489,75 L 488,74 L 485,74 L 484,73 L 482,73 L 481,72 L 480,72 L 479,71 L 476,71 L 475,70 L 473,70 L 472,69 L 470,69 L 469,68 L 467,68 L 466,67 L 464,67 L 463,66 L 461,66 L 460,65 Z" fill="black" /><path d="M 472,0 L 475,0 L 476,1 L 479,1 L 480,2 L 482,2 L 483,3 L 485,3 L 486,4 L 488,4 L 489,5 L 491,5 L 492,6 L 494,6 L 495,7 L 497,7 L 498,8 L 501,8 L 502,9 L 504,9 L 505,10 L 506,10 L 507,11 L 510,11 L 511,12 L 513,12 L 514,13 L 516,13 L 517,14 L 519,14 L 520,15 L 523,15 L 524,16 L 526,16 L 527,17 L 529,17 L 530,18 L 533,18 L 534,19 L 536,19 L 537,20 L 539,20 L 540,21 L 541,21 L 542,22 L 546,22 L 547,23 L 549,23 L 550,24 L 552,24 L 553,25 L 556,25 L 557,26 L 559,26 L 560,27 L 562,27 L 563,28 L 566,28 L 567,29 L 569,29 L 570,30 L 572,30 L 573,31 L 575,31 L 576,32 L 580,32 L 581,33 L 583,33 L 584,34 L 586,34 L 587,35 L 591,35 L 592,36 L 594,36 L 595,37 L 597,37 L 598,38 L 601,38 L 602,39 L 605,39 L 606,40 L 609,40 L 610,41 L 612,41 L 613,42 L 617,42 L 618,43 L 620,43 L 621,44 L 624,44 L 625,45 L 627,45 L 628,46 L 632,46 L 633,47 L 636,47 L 637,48 L 639,48 L 640,49 L 644,49 L 645,50 L 648,50 L 649,51 L 652,51 L 653,52 L 657,52 L 658,53 L 662,53 L 663,54 L 666,54 L 667,55 L 669,55 L 670,56 L 675,56 L 676,57 L 679,57 L 680,58 L 683,58 L 684,59 L 690,59 L 691,60 L 695,60 L 696,61 L 699,61 L 700,62 L 703,62 L 704,63 L 710,63 L 711,64 L 715,64 L 716,65 L 720,65 L 721,66 L 728,66 L 729,67 L 734,67 L 735,68 L 739,68 L 740,69 L 747,69 L 748,70 L 755,70 L 756,71 L 762,71 L 763,72 L 769,72 L 770,73 L 781,73 L 782,74 L 792,74 L 793,75 L 802,75 L 803,76 L 834,76 L 835,77 L 853,77 L 854,76 L 883,76 L 884,75 L 893,75 L 894,74 L 902,74 L 903,73 L 914,73 L 915,72 L 920,72 L 921,71 L 926,71 L 927,70 L 932,70 L 933,69 L 939,69 L 940,68 L 944,68 L 945,67 L 949,67 L 950,66 L 956,66 L 957,65 L 960,65 L 961,64 L 964,64 L 965,63 L 970,63 L 971,62 L 974,62 L 975,61 L 977,61 L 978,60 L 982,60 L 983,59 L 987,59 L 988,58 L 990,58 L 991,57 L 994,57 L 995,56 L 1000,56 L 1001,55 L 1003,55 L 1004,54 L 1006,54 L 1007,53 L 1009,53 L 1010,52 L 1013,52 L 1014,51 L 1016,51 L 1017,50 L 1019,50 L 1020,49 L 1024,49 L 1025,48 L 1027,48 L 1028,47 L 1030,47 L 1031,46 L 1034,46 L 1035,45 L 1038,45 L 1039,44 L 1041,44 L 1042,43 L 1044,43 L 1045,42 L 1048,42 L 1049,41 L 1052,41 L 1053,40 L 1055,40 L 1056,39 L 1060,39 L 1061,38 L 1063,38 L 1064,37 L 1066,37 L 1067,36 L 1070,36 L 1071,35 L 1075,35 L 1076,34 L 1079,34 L 1080,33 L 1083,33 L 1084,32 L 1089,32 L 1090,31 L 1092,31 L 1093,30 L 1096,30 L 1097,29 L 1101,29 L 1102,28 L 1107,28 L 1108,27 L 1112,27 L 1113,26 L 1117,26 L 1118,25 L 1125,25 L 1126,24 L 1130,24 L 1131,23 L 1136,23 L 1137,22 L 1145,22 L 1146,21 L 1154,21 L 1155,20 L 1161,20 L 1162,19 L 1171,19 L 1172,18 L 1189,18 L 1190,17 L 1204,17 L 1205,16 L 1258,16 L 1259,17 L 1268,17 L 1269,18 L 1279,18 L 1280,19 L 1286,19 L 1287,20 L 1292,20 L 1293,21 L 1298,21 L 1299,22 L 1304,22 L 1305,23 L 1309,23 L 1310,24 L 1313,24 L 1314,25 L 1319,25 L 1320,26 L 1323,26 L 1324,27 L 1326,27 L 1327,28 L 1331,28 L 1332,29 L 1335,29 L 1336,30 L 1339,30 L 1340,31 L 1342,31 L 1343,32 L 1347,32 L 1348,33 L 1350,33 L 1351,34 L 1353,34 L 1354,35 L 1357,35 L 1358,36 L 1360,36 L 1361,37 L 1363,37 L 1364,38 L 1366,38 L 1367,39 L 1370,39 L 1371,40 L 1373,40 L 1374,41 L 1375,41 L 1376,42 L 1379,42 L 1380,43 L 1382,43 L 1383,44 L 1385,44 L 1386,45 L 1388,45 L 1389,46 L 1391,46 L 1392,47 L 1394,47 L 1395,48 L 1397,48 L 1398,49 L 1400,49 L 1401,50 L 1403,50 L 1404,51 L 1406,51 L 1407,52 L 1409,52 L 1410,53 L 1412,53 L 1413,54 L 1415,54 L 1416,55 L 1417,55 L 1418,56 L 1421,56 L 1422,57 L 1424,57 L 1425,58 L 1426,58 L 1427,59 L 1430,59 L 1431,60 L 1433,60 L 1434,61 L 1436,61 L 1437,62 L 1438,62 L 1439,63 L 1442,63 L 1443,64 L 1445,64 L 1446,65 L 1447,65 L 1448,66 L 1451,66 L 1452,67 L 1454,67 L 1455,68 L 1457,68 L 1458,69 L 1460,69 L 1461,70 L 1464,70 L 1465,71 L 1467,71 L 1468,72 L 1470,72 L 1471,73 L 1474,73 L 1475,74 L 1477,74 L 1478,75 L 1480,75 L 1481,76 L 1484,76 L 1485,77 L 1488,77 L 1489,78 L 1491,78 L 1492,79 L 1494,79 L 1495,80 L 1499,80 L 1500,81 L 1503,81 L 1504,82 L 1507,82 L 1508,83 L 1512,83 L 1513,84 L 1516,84 L 1517,85 L 1520,85 L 1521,86 L 1524,86 L 1525,87 L 1531,87 L 1532,88 L 1536,88 L 1537,89 L 1542,89 L 1543,90 L 1551,90 L 1552,91 L 1561,91 L 1562,92 L 1603,92 L 1604,93 L 1626,93 L 1627,94 L 1636,94 L 1637,95 L 1643,95 L 1644,96 L 1649,96 L 1650,97 L 1658,97 L 1659,98 L 1664,98 L 1665,99 L 1669,99 L 1670,100 L 1676,100 L 1677,101 L 1680,101 L 1681,102 L 1685,102 L 1686,103 L 1688,103 L 1689,104 L 1694,104 L 1695,105 L 1698,105 L 1699,106 L 1702,106 L 1703,107 L 1707,107 L 1708,108 L 1710,108 L 1711,109 L 1713,109 L 1714,110 L 1717,110 L 1718,111 L 1721,111 L 1722,112 L 1724,112 L 1725,113 L 1727,113 L 1728,114 L 1731,114 L 1732,115 L 1734,115 L 1735,116 L 1737,116 L 1738,117 L 1741,117 L 1742,118 L 1744,118 L 1745,119 L 1747,119 L 1748,120 L 1749,120 L 1750,121 L 1753,121 L 1754,122 L 1756,122 L 1757,123 L 1758,123 L 1759,124 L 1761,124 L 1762,125 L 1764,125 L 1765,126 L 1766,126 L 1767,127 L 1769,127 L 1770,128 L 1772,128 L 1773,129 L 1774,129 L 1775,130 L 1777,130 L 1778,131 L 1780,131 L 1781,132 L 1782,132 L 1783,133 L 1784,133 L 1785,134 L 1787,134 L 1788,135 L 1790,135 L 1791,136 L 1792,136 L 1793,137 L 1794,137 L 1795,138 L 1797,138 L 1798,139 L 1799,139 L 1800,140 L 1801,140 L 1802,141 L 1803,141 L 1804,142 L 1806,142 L 1807,143 L 1808,143 L 1809,144 L 1810,144 L 1811,145 L 1813,145 L 1814,146 L 1815,146 L 1816,147 L 1817,147 L 1818,148 L 1819,148 L 1820,149 L 1821,149 L 1822,150 L 1823,150 L 1824,151 L 1825,151 L 1826,152 L 1828,152 L 1830,154 L 1831,154 L 1832,155 L 1834,155 L 1835,156 L 1836,156 L 1838,158 L 1839,158 L 1840,159 L 1842,159 L 1844,161 L 1845,161 L 1846,162 L 1848,162 L 1850,164 L 1851,164 L 1852,165 L 1853,165 L 1854,166 L 1855,166 L 1856,167 L 1857,167 L 1858,168 L 1859,168 L 1860,169 L 1861,169 L 1862,170 L 1863,170 L 1865,172 L 1866,172 L 1867,173 L 1868,173 L 1869,174 L 1870,174 L 1872,176 L 1873,176 L 1874,177 L 1875,177 L 1876,178 L 1877,178 L 1878,179 L 1879,179 L 1881,181 L 1882,181 L 1883,182 L 1884,182 L 1885,183 L 1886,183 L 1888,185 L 1889,185 L 1891,187 L 1892,187 L 1893,188 L 1894,188 L 1896,190 L 1897,190 L 1899,192 L 1900,192 L 1901,193 L 1902,193 L 1905,196 L 1906,196 L 1907,197 L 1908,197 L 1910,199 L 1911,199 L 1913,201 L 1914,201 L 1916,203 L 1917,203 L 1920,206 L 1921,206 L 1922,207 L 1923,207 L 1926,210 L 1927,210 L 1930,213 L 1931,213 L 1933,215 L 1934,215 L 1938,219 L 1939,219 L 1943,223 L 1944,223 L 1949,228 L 1950,228 L 1956,234 L 1957,234 L 1972,249 L 1972,250 L 1977,255 L 1977,256 L 1980,259 L 1980,260 L 1981,261 L 1981,262 L 1984,265 L 1984,266 L 1985,267 L 1985,268 L 1986,269 L 1986,270 L 1987,271 L 1987,272 L 1988,273 L 1988,274 L 1989,275 L 1989,276 L 1990,277 L 1990,278 L 1991,279 L 1991,281 L 1992,282 L 1992,285 L 1993,286 L 1993,288 L 1994,289 L 1994,292 L 1995,293 L 1995,298 L 1996,299 L 1996,302 L 1997,303 L 1997,308 L 1998,309 L 1998,320 L 1999,321 L 1999,329 L 1999,0 Z" fill="black" /><path d="M 0,0 L 0,931 L 0,920 L 1,919 L 1,905 L 2,904 L 2,897 L 3,896 L 3,890 L 4,889 L 4,881 L 5,880 L 5,874 L 6,873 L 6,869 L 7,868 L 7,864 L 8,863 L 8,856 L 9,855 L 9,851 L 10,850 L 10,847 L 11,846 L 11,840 L 12,839 L 12,836 L 13,835 L 13,832 L 14,831 L 14,828 L 15,827 L 15,822 L 16,821 L 16,819 L 17,818 L 17,815 L 18,814 L 18,810 L 19,809 L 19,806 L 20,805 L 20,803 L 21,802 L 21,799 L 22,798 L 22,795 L 23,794 L 23,792 L 24,791 L 24,788 L 25,787 L 25,784 L 26,783 L 26,781 L 27,780 L 27,778 L 28,777 L 28,774 L 29,773 L 29,771 L 30,770 L 30,768 L 31,767 L 31,765 L 32,764 L 32,761 L 33,760 L 33,759 L 34,758 L 34,756 L 35,755 L 35,752 L 36,751 L 36,750 L 37,749 L 37,747 L 38,746 L 38,744 L 39,743 L 39,741 L 40,740 L 40,738 L 41,737 L 41,736 L 42,735 L 42,733 L 43,732 L 43,730 L 44,729 L 44,728 L 45,727 L 45,725 L 46,724 L 46,722 L 47,721 L 47,720 L 48,719 L 48,717 L 49,716 L 49,714 L 50,713 L 50,712 L 51,711 L 51,710 L 52,709 L 52,707 L 53,706 L 53,705 L 54,704 L 54,702 L 55,701 L 55,700 L 56,699 L 56,697 L 57,696 L 57,695 L 58,694 L 58,693 L 59,692 L 59,690 L 60,689 L 60,688 L 61,687 L 61,686 L 62,685 L 62,684 L 63,683 L 63,681 L 64,680 L 64,679 L 65,678 L 65,677 L 66,676 L 66,675 L 67,674 L 67,672 L 69,670 L 69,668 L 70,667 L 70,666 L 71,665 L 71,664 L 72,663 L 72,662 L 73,661 L 73,660 L 74,659 L 74,658 L 75,657 L 75,656 L 76,655 L 76,654 L 77,653 L 77,652 L 78,651 L 78,650 L 79,649 L 79,648 L 80,647 L 80,646 L 81,645 L 81,644 L 82,643 L 82,642 L 83,641 L 83,640 L 84,639 L 84,638 L 85,637 L 85,636 L 86,635 L 86,634 L 87,633 L 87,632 L 88,631 L 88,630 L 90,628 L 90,627 L 91,626 L 91,625 L 92,624 L 92,623 L 93,622 L 93,621 L 95,619 L 95,618 L 96,617 L 96,616 L 97,615 L 97,614 L 99,612 L 99,611 L 100,610 L 100,609 L 101,608 L 101,607 L 103,605 L 103,604 L 104,603 L 104,602 L 106,600 L 106,599 L 107,598 L 107,597 L 109,595 L 109,594 L 110,593 L 110,592 L 112,590 L 112,589 L 114,587 L 114,586 L 115,585 L 115,584 L 117,582 L 117,581 L 119,579 L 119,578 L 121,576 L 121,575 L 123,573 L 123,572 L 124,571 L 124,570 L 127,567 L 127,566 L 128,565 L 128,564 L 131,561 L 131,560 L 133,558 L 133,557 L 135,555 L 135,554 L 138,551 L 138,550 L 140,548 L 140,547 L 142,545 L 142,544 L 145,541 L 145,540 L 148,537 L 148,536 L 151,533 L 151,532 L 154,529 L 154,528 L 157,525 L 157,524 L 161,520 L 161,519 L 165,515 L 165,514 L 169,510 L 169,509 L 174,504 L 174,503 L 179,498 L 179,497 L 186,490 L 186,489 L 193,482 L 193,481 L 205,469 L 205,468 L 234,439 L 235,439 L 247,427 L 248,427 L 256,419 L 257,419 L 264,412 L 265,412 L 271,406 L 272,406 L 276,402 L 277,402 L 281,398 L 282,398 L 286,394 L 287,394 L 290,391 L 291,391 L 294,388 L 295,388 L 299,384 L 300,384 L 303,381 L 304,381 L 307,378 L 308,378 L 311,375 L 312,375 L 314,373 L 315,373 L 317,371 L 318,371 L 321,368 L 322,368 L 325,365 L 326,365 L 327,364 L 328,364 L 331,361 L 332,361 L 334,359 L 335,359 L 337,357 L 338,357 L 340,355 L 341,355 L 343,353 L 344,353 L 346,351 L 347,351 L 348,350 L 349,350 L 351,348 L 352,348 L 354,346 L 355,346 L 357,344 L 358,344 L 359,343 L 360,343 L 362,341 L 363,341 L 364,340 L 365,340 L 367,338 L 368,338 L 369,337 L 370,337 L 372,335 L 373,335 L 374,334 L 375,334 L 376,333 L 377,333 L 379,331 L 380,331 L 381,330 L 382,330 L 383,329 L 384,329 L 386,327 L 387,327 L 388,326 L 389,326 L 390,325 L 391,325 L 393,323 L 394,323 L 395,322 L 396,322 L 397,321 L 398,321 L 399,320 L 400,320 L 401,319 L 402,319 L 404,317 L 405,317 L 406,316 L 407,316 L 408,315 L 409,315 L 410,314 L 411,314 L 412,313 L 413,313 L 414,312 L 415,312 L 416,311 L 417,311 L 418,310 L 419,310 L 420,309 L 421,309 L 422,308 L 423,308 L 425,306 L 427,306 L 428,305 L 429,305 L 431,303 L 433,303 L 434,302 L 432,300 L 432,299 L 428,295 L 428,294 L 424,290 L 424,289 L 421,286 L 421,285 L 418,282 L 418,281 L 416,279 L 416,278 L 414,276 L 414,275 L 412,273 L 412,272 L 410,270 L 410,269 L 408,267 L 408,266 L 407,265 L 407,264 L 405,262 L 405,261 L 404,260 L 404,259 L 402,257 L 402,256 L 401,255 L 401,254 L 400,253 L 400,252 L 399,251 L 399,250 L 398,249 L 398,248 L 397,247 L 397,246 L 396,245 L 396,244 L 395,243 L 395,242 L 394,241 L 394,240 L 393,240 L 392,239 L 393,238 L 392,237 L 392,236 L 391,235 L 391,233 L 390,232 L 390,231 L 389,230 L 389,229 L 388,228 L 388,226 L 387,225 L 387,224 L 386,223 L 386,221 L 385,220 L 385,219 L 383,217 L 384,216 L 384,215 L 383,214 L 383,213 L 382,212 L 382,210 L 381,209 L 381,207 L 380,206 L 380,203 L 379,202 L 379,200 L 378,199 L 378,198 L 377,197 L 377,192 L 376,191 L 376,189 L 375,188 L 375,185 L 374,184 L 374,179 L 373,178 L 373,174 L 372,173 L 372,169 L 371,168 L 371,162 L 370,161 L 370,150 L 369,149 L 369,111 L 370,110 L 370,99 L 371,98 L 371,93 L 372,92 L 372,88 L 373,87 L 373,83 L 374,82 L 374,77 L 375,76 L 375,74 L 376,73 L 376,70 L 377,69 L 377,66 L 378,65 L 378,63 L 379,62 L 379,60 L 380,59 L 380,57 L 381,56 L 381,54 L 382,53 L 382,52 L 383,51 L 383,49 L 384,48 L 384,46 L 385,45 L 385,44 L 386,43 L 386,42 L 387,41 L 387,40 L 388,39 L 388,38 L 390,36 L 390,35 L 392,33 L 392,32 L 394,30 L 394,29 L 400,23 L 400,22 L 403,19 L 404,19 L 410,13 L 411,13 L 413,11 L 414,11 L 416,9 L 417,9 L 418,8 L 419,8 L 420,7 L 421,7 L 422,6 L 423,6 L 424,5 L 425,5 L 426,4 L 427,4 L 428,3 L 429,3 L 430,2 L 432,2 L 433,1 L 437,1 L 438,0 L 440,0 Z" fill="black" /></svg>